<svg width="24" height="24" viewBox="0 0 24 24" fill="none" xmlns="http://www.w3.org/2000/svg">
<path d="M15.1113 2.88525C15.1868 3.87126 14.875 4.84787 14.2421 5.60767C13.939 5.98463 13.5543 6.2879 13.1171 6.49464C12.6798 6.70139 12.2013 6.80622 11.7176 6.80124C11.6868 6.32709 11.7497 5.85149 11.9027 5.40166C12.0558 4.95182 12.296 4.53656 12.6096 4.17962C13.2511 3.44896 14.1443 2.98682 15.1113 2.88525Z" fill="black"/>
<path d="M16.8752 10.0616C16.5538 10.6278 16.3809 11.2661 16.3725 11.9171C16.3733 12.6493 16.5896 13.3651 16.9945 13.9753C17.3994 14.5854 17.9749 15.0629 18.6493 15.3481C18.3842 16.2095 17.9845 17.0235 17.4651 17.76C16.7675 18.8035 16.0361 19.8229 14.8753 19.8417C14.3232 19.8545 13.9506 19.6957 13.5622 19.5303C13.1572 19.3578 12.7351 19.1779 12.0746 19.1779C11.3741 19.1779 10.9331 19.3635 10.5078 19.5425C10.1403 19.6972 9.78445 19.847 9.28296 19.8678C8.17745 19.9087 7.33259 18.7541 6.60968 17.7204C5.16479 15.6095 4.03971 11.7714 5.54804 9.15991C5.89625 8.53419 6.40061 8.00933 7.01197 7.63648C7.62334 7.26364 8.32086 7.05551 9.03657 7.03239C9.66357 7.01949 10.2652 7.26115 10.7927 7.47302C11.1961 7.63506 11.5561 7.77966 11.8509 7.77966C12.1101 7.77966 12.4601 7.64076 12.8679 7.47889C13.5104 7.22389 14.2966 6.91188 15.0977 6.99597C15.7116 7.01518 16.3127 7.17729 16.853 7.46941C17.3934 7.76153 17.8581 8.17562 18.2105 8.67879C17.6559 9.01976 17.1965 9.49546 16.8752 10.0616Z" fill="black"/>
</svg>
