<svg width="68" height="22" viewBox="0 0 68 22" fill="none" xmlns="http://www.w3.org/2000/svg">
<g id="Texto">
<g id="App Store">
<path d="M42.6502 9.1212V11.1854H41.3653V12.539H42.6502V17.1385C42.6502 18.709 43.3558 19.3372 45.131 19.3372C45.4429 19.3372 45.74 19.2998 46 19.255V17.9163C45.7772 17.9387 45.6361 17.9537 45.391 17.9537C44.5962 17.9537 44.2471 17.5797 44.2471 16.7271V12.539H46V11.1854H44.2471V9.1212H42.6502Z" fill="#000018"/>
<path d="M50.5221 19.4494C52.8841 19.4494 54.3324 17.8564 54.3324 15.2164C54.3324 12.5914 52.8766 10.9909 50.5221 10.9909C48.1602 10.9909 46.7044 12.5914 46.7044 15.2164C46.7044 17.8564 48.1528 19.4494 50.5221 19.4494ZM50.5221 18.021C49.1332 18.021 48.3533 16.9964 48.3533 15.2164C48.3533 13.4514 49.1332 12.4194 50.5221 12.4194C51.9036 12.4194 52.691 13.4514 52.691 15.2164C52.691 16.9889 51.9036 18.021 50.5221 18.021Z" fill="#000018"/>
<path d="M55.5716 19.2924H57.1685V14.4835C57.1685 13.3392 58.0227 12.5689 59.2334 12.5689C59.5156 12.5689 59.991 12.6213 60.1246 12.6662V11.0806C59.9538 11.0358 59.6493 11.0133 59.4116 11.0133C58.3569 11.0133 57.4582 11.5967 57.2279 12.3969H57.1091V11.148H55.5716V19.2924Z" fill="#000018"/>
<path d="M64.0897 12.3595C65.2707 12.3595 66.0431 13.1897 66.0803 14.4685H61.9952C62.0843 13.1971 62.9088 12.3595 64.0897 12.3595ZM66.0729 17.0936C65.7758 17.7293 65.1147 18.0808 64.1491 18.0808C62.8716 18.0808 62.0472 17.1759 61.9952 15.7474V15.6577H67.7069V15.0968C67.7069 12.539 66.3477 10.9909 64.0972 10.9909C61.8169 10.9909 60.3686 12.6437 60.3686 15.2463C60.3686 17.849 61.7872 19.4494 64.1046 19.4494C65.954 19.4494 67.2464 18.552 67.6103 17.0936H66.0729Z" fill="#000018"/>
<path d="M32.178 16.2848C32.3011 18.2847 33.9563 19.5637 36.4198 19.5637C39.0526 19.5637 40.7 18.2227 40.7 16.0832C40.7 14.4011 39.7608 13.4709 37.4821 12.9361L36.2581 12.6338C34.8108 12.2927 34.2257 11.8354 34.2257 11.037C34.2257 10.0293 35.1341 9.37038 36.4967 9.37038C37.7901 9.37038 38.6831 10.0138 38.8447 11.0447H40.523C40.4229 9.16109 38.7755 7.83557 36.5198 7.83557C34.0949 7.83557 32.4782 9.16109 32.4782 11.1532C32.4782 12.7966 33.3943 13.7733 35.4036 14.2461L36.8355 14.5949C38.3059 14.9437 38.9525 15.4553 38.9525 16.308C38.9525 17.3002 37.9363 18.0211 36.5506 18.0211C35.0649 18.0211 34.0333 17.3467 33.887 16.2848H32.178Z" fill="#000018"/>
<path d="M15.6357 11.0133C14.5364 11.0133 13.5857 11.5668 13.0955 12.4941H12.9767V11.148H11.4392V21.9997H13.0361V18.0584H13.1624C13.5857 18.9184 14.4993 19.427 15.6505 19.427C17.6931 19.427 18.9929 17.8041 18.9929 15.2164C18.9929 12.6288 17.6931 11.0133 15.6357 11.0133ZM15.1826 17.9836C13.8457 17.9836 13.0064 16.9216 13.0064 15.2239C13.0064 13.5187 13.8457 12.4567 15.19 12.4567C16.5418 12.4567 17.3514 13.4963 17.3514 15.2164C17.3514 16.944 16.5418 17.9836 15.1826 17.9836Z" fill="#000018"/>
<path d="M24.5807 11.0133C23.4815 11.0133 22.5308 11.5668 22.0405 12.4941H21.9217V11.148H20.3842V21.9997H21.9811V18.0584H22.1074C22.5308 18.9184 23.4443 19.427 24.5956 19.427C26.6381 19.427 27.9379 17.8041 27.9379 15.2164C27.9379 12.6288 26.6381 11.0133 24.5807 11.0133ZM24.1277 17.9836C22.7907 17.9836 21.9514 16.9216 21.9514 15.2239C21.9514 13.5187 22.7907 12.4567 24.1351 12.4567C25.4869 12.4567 26.2965 13.4963 26.2965 15.2164C26.2965 16.944 25.4869 17.9836 24.1277 17.9836Z" fill="#000018"/>
<path d="M8.57406 19.2924H10.4063L6.39543 8.10688H4.54013L0.529297 19.2924H2.29992L3.32379 16.3235H7.55788L8.57406 19.2924ZM5.37925 10.1378H5.51012L7.11908 14.8662H3.7626L5.37925 10.1378Z" fill="#000018"/>
</g>
<g id="Download on the">
<path d="M0.485352 0.217543V4.63888H2.07073C3.3792 4.63888 4.1369 3.82692 4.1369 2.41442C4.1369 1.02337 3.37312 0.217543 2.07073 0.217543H0.485352ZM1.16697 0.842597H1.99466C2.9045 0.842597 3.44311 1.42476 3.44311 2.42362C3.44311 3.4378 2.91363 4.01383 1.99466 4.01383H1.16697V0.842597Z" fill="#000018"/>
<path d="M6.45746 4.70322C7.42512 4.70322 8.01849 4.05059 8.01849 2.96901C8.01849 1.89355 7.42207 1.23785 6.45746 1.23785C5.4898 1.23785 4.89338 1.89355 4.89338 2.96901C4.89338 4.05059 5.48675 4.70322 6.45746 4.70322ZM6.45746 4.118C5.88842 4.118 5.56891 3.69824 5.56891 2.96901C5.56891 2.2459 5.88842 1.82307 6.45746 1.82307C7.02345 1.82307 7.346 2.2459 7.346 2.96901C7.346 3.69517 7.02345 4.118 6.45746 4.118Z" fill="#000018"/>
<path d="M13.0716 1.3022H12.4174L11.8271 3.84837H11.7753L11.0937 1.3022H10.4669L9.78523 3.84837H9.73655L9.14317 1.3022H8.47981L9.39269 4.63888H10.0652L10.7468 2.18156H10.7985L11.4832 4.63888H12.1618L13.0716 1.3022Z" fill="#000018"/>
<path d="M13.8251 4.63888H14.4793V2.68712C14.4793 2.16624 14.7866 1.84146 15.2705 1.84146C15.7543 1.84146 15.9856 2.10802 15.9856 2.64422V4.63888H16.6398V2.47877C16.6398 1.68519 16.232 1.23785 15.4926 1.23785C14.9936 1.23785 14.6649 1.46152 14.5036 1.83227H14.455V1.3022H13.8251V4.63888Z" fill="#000018"/>
<path d="M17.6701 4.63888H18.3244V0H17.6701V4.63888Z" fill="#000018"/>
<path d="M20.7849 4.70322C21.7526 4.70322 22.346 4.05059 22.346 2.96901C22.346 1.89355 21.7495 1.23785 20.7849 1.23785C19.8173 1.23785 19.2208 1.89355 19.2208 2.96901C19.2208 4.05059 19.8142 4.70322 20.7849 4.70322ZM20.7849 4.118C20.2159 4.118 19.8964 3.69824 19.8964 2.96901C19.8964 2.2459 20.2159 1.82307 20.7849 1.82307C21.3509 1.82307 21.6735 2.2459 21.6735 2.96901C21.6735 3.69517 21.3509 4.118 20.7849 4.118Z" fill="#000018"/>
<path d="M24.2953 4.13945C23.9392 4.13945 23.6806 3.9648 23.6806 3.66453C23.6806 3.37039 23.8875 3.21413 24.344 3.18349L25.1534 3.1314V3.41022C25.1534 3.82386 24.7882 4.13945 24.2953 4.13945ZM24.1279 4.69403C24.563 4.69403 24.9252 4.50406 25.1229 4.17009H25.1747V4.63888H25.8046V2.35927C25.8046 1.65455 25.336 1.23785 24.5052 1.23785C23.7536 1.23785 23.2181 1.60553 23.1511 2.1785H23.784C23.8571 1.94257 24.1096 1.80775 24.4748 1.80775C24.9221 1.80775 25.1534 2.00691 25.1534 2.35927V2.64729L24.2557 2.69937C23.4676 2.7484 23.0233 3.09463 23.0233 3.69517C23.0233 4.30491 23.4889 4.69403 24.1279 4.69403Z" fill="#000018"/>
<path d="M28.0247 4.69403C28.4812 4.69403 28.8676 4.47649 29.0654 4.11187H29.1171V4.63888H29.744V0H29.0897V1.83227H29.0411C28.8615 1.46459 28.4781 1.24704 28.0247 1.24704C27.1879 1.24704 26.6493 1.91499 26.6493 2.96901C26.6493 4.02608 27.1818 4.69403 28.0247 4.69403ZM28.2103 1.83839C28.7581 1.83839 29.1019 2.27654 29.1019 2.97207C29.1019 3.67066 28.7611 4.10268 28.2103 4.10268C27.6565 4.10268 27.3248 3.67679 27.3248 2.96901C27.3248 2.26735 27.6596 1.83839 28.2103 1.83839Z" fill="#000018"/>
<path d="M33.9865 4.70322C34.9541 4.70322 35.5475 4.05059 35.5475 2.96901C35.5475 1.89355 34.9511 1.23785 33.9865 1.23785C33.0188 1.23785 32.4224 1.89355 32.4224 2.96901C32.4224 4.05059 33.0158 4.70322 33.9865 4.70322ZM33.9865 4.118C33.4174 4.118 33.0979 3.69824 33.0979 2.96901C33.0979 2.2459 33.4174 1.82307 33.9865 1.82307C34.5525 1.82307 34.875 2.2459 34.875 2.96901C34.875 3.69517 34.5525 4.118 33.9865 4.118Z" fill="#000018"/>
<path d="M36.4135 4.63888H37.0678V2.68712C37.0678 2.16624 37.3751 1.84146 37.8589 1.84146C38.3428 1.84146 38.574 2.10802 38.574 2.64422V4.63888H39.2283V2.47877C39.2283 1.68519 38.8205 1.23785 38.0811 1.23785C37.582 1.23785 37.2534 1.46152 37.0921 1.83227H37.0434V1.3022H36.4135V4.63888Z" fill="#000018"/>
<path d="M42.2414 0.471854V1.31752H41.715V1.8721H42.2414V3.75645C42.2414 4.39989 42.5305 4.65726 43.2578 4.65726C43.3856 4.65726 43.5073 4.64194 43.6138 4.62356V4.07511C43.5225 4.0843 43.4647 4.09043 43.3643 4.09043C43.0387 4.09043 42.8956 3.93723 42.8956 3.58793V1.8721H43.6138V1.31752H42.8956V0.471854H42.2414Z" fill="#000018"/>
<path d="M44.492 4.63888H45.1462V2.69018C45.1462 2.18462 45.4444 1.84452 45.98 1.84452C46.4425 1.84452 46.689 2.11415 46.689 2.64729V4.63888H47.3432V2.4849C47.3432 1.69132 46.9081 1.24092 46.2021 1.24092C45.7031 1.24092 45.3531 1.46459 45.1919 1.83839H45.1401V0H44.492V4.63888Z" fill="#000018"/>
<path d="M49.7033 1.79856C50.1872 1.79856 50.5036 2.13866 50.5189 2.66261H48.8452C48.8817 2.14173 49.2195 1.79856 49.7033 1.79856ZM50.5158 3.73807C50.3941 3.99851 50.1233 4.14251 49.7277 4.14251C49.2043 4.14251 48.8665 3.77177 48.8452 3.18655V3.14978H51.1853V2.91998C51.1853 1.8721 50.6284 1.23785 49.7064 1.23785C48.7722 1.23785 48.1788 1.91499 48.1788 2.98126C48.1788 4.04753 48.76 4.70322 49.7094 4.70322C50.4671 4.70322 50.9966 4.33555 51.1457 3.73807H50.5158Z" fill="#000018"/>
</g>
</g>
</svg>
