<svg width="40" height="40" viewBox="0 0 40 40" fill="none" xmlns="http://www.w3.org/2000/svg">
<g id="Coins 1">
<g id="Group">
<path id="Vector" d="M20.0352 37.8472C29.8727 37.8472 37.8477 29.8723 37.8477 20.0347C37.8477 10.1972 29.8727 2.22223 20.0352 2.22223C10.1976 2.22223 2.22266 10.1972 2.22266 20.0347C2.22266 29.8723 10.1976 37.8472 20.0352 37.8472Z" fill="#FEDA2C"/>
<path id="Vector_2" d="M20.0008 33.7312C27.5843 33.7312 33.732 27.5835 33.732 20C33.732 12.4164 27.5843 6.26874 20.0008 6.26874C12.4172 6.26874 6.26953 12.4164 6.26953 20C6.26953 27.5835 12.4172 33.7312 20.0008 33.7312Z" fill="#FCAA17"/>
<path id="Vector_3" d="M20.0002 9.44751L23.123 15.775L30.1055 16.7897L25.053 21.715L26.2458 28.6694L20.0002 25.3859L13.7545 28.6694L14.9473 21.715L9.89453 16.7897L16.8773 15.775L20.0002 9.44751Z" fill="#FEDA2C"/>
</g>
</g>
</svg>
