<svg width="55" height="24" viewBox="0 0 55 24" fill="none" xmlns="http://www.w3.org/2000/svg">
<g id="logo">
<path id="Vector" d="M14.3954 8.09509L20.1301 8.10031H20.5542C20.3773 6.43561 19.1254 5.07429 18.7136 4.72306C18.1746 4.2608 17.5788 3.90682 16.9495 3.65529C15.9059 3.23781 14.7647 3.08966 13.6283 3.19272C12.4781 3.29609 11.3282 3.6605 10.2847 4.26387C9.25711 4.85956 8.33837 5.69513 7.63074 6.75217C6.7536 6.24727 5.735 5.95771 4.64951 5.95771C4.56198 5.95771 4.4763 5.96016 4.39062 5.96353C5.42217 4.03473 6.9416 2.53844 8.69095 1.52526C10.1284 0.693377 11.7276 0.190932 13.3426 0.0446153C14.9733 -0.102622 16.6197 0.112712 18.1333 0.718223C19.049 1.08417 19.9141 1.58876 20.6969 2.23599C23.2161 4.31755 24.3817 7.8727 24.15 11.2644L22.8916 11.2631L14.396 11.2555V8.0954L14.3954 8.09509ZM7.78515 16.9471C8.65026 18.156 9.81341 19.1366 11.1676 19.7808C12.7173 20.5185 14.5181 20.763 16.2767 20.5489C18.0273 20.3372 19.7119 19.6685 21.0372 18.582C23.0438 16.9357 24.2767 14.5045 25.4423 11.999H28.9385L28.6734 12.572C27.2471 15.6658 25.8238 18.7517 23.054 21.0234C21.2458 22.5062 18.9818 23.4142 16.6505 23.6973C14.3292 23.9783 11.9153 23.639 9.7977 22.6323C7.74847 21.6568 6.02101 20.1197 4.81964 18.2231C4.73889 18.0949 4.65968 17.9649 4.58356 17.8333L4.6489 17.8342C5.7991 17.8342 6.8741 17.51 7.78515 16.9477V16.9471Z" fill="white"/>
<path id="Vector_2" d="M39.987 15.9033L34.2517 15.8987L33.8283 15.8984C34.0046 17.5637 35.2568 18.9247 35.6682 19.2765C36.2082 19.7379 36.8039 20.0925 37.4324 20.344C38.4762 20.7615 39.6181 20.9105 40.7532 20.8075C41.905 20.7029 43.0552 20.3397 44.0978 19.7354C45.2603 19.0624 46.282 18.0821 47.0174 16.822C47.9044 17.4174 48.9612 17.7821 50.1006 17.8287C49.0688 19.8587 47.5041 21.4247 45.6912 22.4743C44.2547 23.3068 42.6561 23.8087 41.0408 23.955C39.4095 24.1031 37.764 23.8875 36.2501 23.282C35.3348 22.9157 34.4684 22.4118 33.6853 21.7639C31.167 19.683 30.0013 16.1272 30.2325 12.7358L31.4909 12.7368L39.987 12.7438V15.9039V15.9033ZM46.7 7.19943C45.8259 5.92338 44.6233 4.88812 43.2148 4.21758C41.6652 3.48048 39.8634 3.23692 38.1052 3.4498C36.354 3.66237 34.6697 4.32985 33.3456 5.41633C31.3374 7.06324 30.1049 9.49387 28.9396 11.999H25.4434L25.7084 11.4267C27.1348 8.33377 28.558 5.24793 31.3278 2.97527C33.1357 1.49247 35.401 0.585125 37.7313 0.302308C40.0536 0.0207175 42.4677 0.359669 44.5845 1.36763C46.634 2.34307 48.3605 3.87924 49.5622 5.77584C49.6078 5.84853 49.6522 5.92062 49.6966 5.99301C48.5751 6.11571 47.5475 6.54637 46.7003 7.19912L46.7 7.19943Z" fill="white"/>
<path id="Vector_3" fill-rule="evenodd" clip-rule="evenodd" d="M4.64797 7.26996C7.21405 7.26996 9.29502 9.3417 9.29502 11.8963C9.29502 14.4505 7.21374 16.5216 4.64797 16.5216C2.08035 16.5216 0 14.4505 0 11.8963C0 9.3417 2.08066 7.26996 4.64797 7.26996Z" fill="white"/>
<path id="Vector_4" fill-rule="evenodd" clip-rule="evenodd" d="M50.3524 7.26996C52.9191 7.26996 55.0001 9.3417 55.0001 11.8963C55.0001 14.4505 52.9191 16.5216 50.3524 16.5216C47.7857 16.5216 45.7051 14.4505 45.7051 11.8963C45.7051 9.3417 47.7857 7.26996 50.3524 7.26996Z" fill="white"/>
</g>
</svg>
