<svg width="18" height="18" viewBox="0 0 18 18" fill="none" xmlns="http://www.w3.org/2000/svg">
<g id="calendar-check-out-01">
<g id="elements">
<path id="Vector" d="M8.2875 16.5C5.26462 16.5 3.75318 16.5 2.81409 15.4848C1.875 14.4695 1.875 12.8355 1.875 9.56757V9.18243C1.875 5.91445 1.875 4.28046 2.81409 3.26523C3.75318 2.25 5.26462 2.25 8.2875 2.25H9.7125C12.7354 2.25 14.2468 2.25 15.1859 3.26523C16.07 4.22102 16.1218 5.72523 16.1248 8.625V9.75" stroke="#67779A" stroke-width="1.4" stroke-linecap="round" stroke-linejoin="round"/>
<path id="Vector_2" d="M15.75 13.875L9.75 13.875M15.75 13.875C15.75 14.4002 14.2543 15.3814 13.875 15.75M15.75 13.875C15.75 13.3498 14.2543 12.3686 13.875 12" stroke="#67779A" stroke-width="1.4" stroke-linecap="round" stroke-linejoin="round"/>
<path id="Vector_3" d="M13.5 1.5V3M4.5 1.5V3" stroke="#67779A" stroke-width="1.4" stroke-linecap="round" stroke-linejoin="round"/>
<path id="Vector 4046" d="M2.25 6H15.75" stroke="#67779A" stroke-width="1.4" stroke-linecap="round" stroke-linejoin="round"/>
</g>
</g>
</svg>
