<svg width="18" height="19" viewBox="0 0 18 19" fill="none" xmlns="http://www.w3.org/2000/svg">
<path d="M13.5 2V3.5M4.5 2V3.5" stroke="#67779A" stroke-width="1.4" stroke-linecap="round" stroke-linejoin="round"/>
<path d="M8.2875 17C5.26462 17 3.75318 17 2.81409 15.9848C1.875 14.9695 1.875 13.3355 1.875 10.0676V9.68243C1.875 6.41445 1.875 4.78046 2.81409 3.76523C3.75318 2.75 5.26462 2.75 8.2875 2.75H9.7125C12.7354 2.75 14.2468 2.75 15.1859 3.76523C16.07 4.72102 16.1218 6.22523 16.1248 9.125V10.25" stroke="#67779A" stroke-width="1.4" stroke-linecap="round" stroke-linejoin="round"/>
<path d="M9.75 13.625L15.75 13.625M9.75 13.625C9.75 14.1502 11.2457 15.1314 11.625 15.5M9.75 13.625C9.75 13.0998 11.2457 12.1186 11.625 11.75" stroke="#67779A" stroke-width="1.4" stroke-linecap="round" stroke-linejoin="round"/>
<path d="M2.25 6.5H15.75" stroke="#67779A" stroke-width="1.4" stroke-linecap="round" stroke-linejoin="round"/>
</svg>
