<svg width="38" height="37" viewBox="0 0 38 37" fill="none" xmlns="http://www.w3.org/2000/svg">
<g clip-path="url(#clip0_7100_30238)">
<path d="M30.8258 13.5603C30.8252 13.3856 30.8212 13.2118 30.8133 13.0389V3.17841L28.0873 5.90442C25.8562 3.17348 22.4622 1.4292 18.6606 1.4292C14.7043 1.4292 11.1896 3.3176 8.96777 6.24208L13.436 10.7573C13.8739 9.94749 14.496 9.25191 15.246 8.72656C16.0261 8.11781 17.1314 7.62007 18.6604 7.62007C18.8451 7.62007 18.9877 7.64165 19.0924 7.68232C20.9868 7.83184 22.6289 8.87732 23.5958 10.3947L20.4329 13.5576C24.4391 13.5419 28.9648 13.5327 30.8254 13.5596" fill="#1C3AA9"/>
<path d="M18.5896 1.42969C18.4149 1.43027 18.2411 1.4343 18.0682 1.44213H8.20771L10.9337 4.16814C8.20278 6.39922 6.4585 9.79327 6.4585 13.5949C6.4585 17.5512 8.34692 21.0659 11.2714 23.2877L15.7866 18.8194C14.9768 18.3815 14.2812 17.7595 13.7559 17.0094C13.1471 16.2293 12.6494 15.124 12.6494 13.5951C12.6494 13.4103 12.6709 13.2678 12.7116 13.163C12.8611 11.2686 13.9066 9.62653 15.424 8.65966L18.5869 11.8225C18.5712 7.81637 18.5619 3.29067 18.5889 1.43004" fill="#4285F4"/>
<path d="M6.45898 13.5942C6.45956 13.769 6.4636 13.9428 6.47143 14.1157V23.9762L9.19744 21.2502C11.4285 23.9811 14.8226 25.7254 18.6242 25.7254C22.5805 25.7254 26.0952 23.837 28.317 20.9125L23.8487 16.3972C23.4108 17.2071 22.7888 17.9027 22.0387 18.428C21.2586 19.0368 20.1533 19.5345 18.6243 19.5345C18.4396 19.5345 18.2971 19.5129 18.1923 19.4723C16.2979 19.3227 14.6558 18.2773 13.689 16.7598L16.8518 13.597C12.8457 13.6127 8.31997 13.6219 6.45933 13.5949" fill="#ABABAB"/>
<path d="M8.51186 30.4366C8.21553 30.4366 7.94987 30.4928 7.71484 30.6052C7.47982 30.715 7.28057 30.8721 7.11708 31.0765C6.95614 31.2809 6.83225 31.5287 6.74539 31.8199C6.66109 32.1085 6.61894 32.4316 6.61894 32.7893V33.82C6.61894 34.1802 6.66109 34.5046 6.74539 34.7933C6.83224 35.082 6.95486 35.3285 7.11325 35.5328C7.27164 35.7372 7.46321 35.8943 7.688 36.0041C7.9128 36.114 8.1657 36.1689 8.44671 36.1689C8.73537 36.1689 8.98828 36.1268 9.20541 36.0425C9.4251 35.9582 9.60901 35.8368 9.75719 35.6785C9.90535 35.5175 10.019 35.3234 10.0982 35.096C10.18 34.8687 10.2285 34.6107 10.2438 34.322H9.53493C9.51705 34.5442 9.4864 34.7346 9.44297 34.8929C9.39954 35.0487 9.33568 35.1778 9.25138 35.2799C9.16963 35.3796 9.06234 35.4536 8.92949 35.5022C8.79922 35.5482 8.63827 35.5711 8.4467 35.5711C8.24234 35.5711 8.06862 35.5264 7.92558 35.437C7.78253 35.3451 7.6663 35.2199 7.57689 35.0615C7.49004 34.9031 7.42618 34.7179 7.3853 34.5059C7.34698 34.2939 7.32783 34.0653 7.32783 33.82V32.7816C7.32783 32.5185 7.35082 32.2796 7.3968 32.0651C7.44533 31.8505 7.51814 31.6678 7.61521 31.5171C7.71228 31.3664 7.8349 31.2502 7.98307 31.1684C8.13123 31.0841 8.30751 31.042 8.51185 31.042C8.683 31.042 8.82987 31.0675 8.9525 31.1186C9.07511 31.1671 9.17729 31.2438 9.25903 31.3485C9.34078 31.4507 9.40337 31.581 9.44679 31.7393C9.49022 31.8977 9.5196 32.0868 9.53492 32.3064H10.2438C10.231 32.005 10.1838 31.7381 10.102 31.5056C10.0203 31.2731 9.90662 31.0777 9.76101 30.9193C9.6154 30.7609 9.43785 30.6409 9.2284 30.5591C9.02149 30.4774 8.78265 30.4365 8.51185 30.4365L8.51186 30.4366ZM25.8163 30.4366C25.52 30.4366 25.2543 30.4928 25.0193 30.6052C24.7843 30.715 24.585 30.8721 24.4215 31.0765C24.2606 31.2809 24.1367 31.5287 24.0498 31.8199C23.9655 32.1085 23.9234 32.4316 23.9234 32.7893V33.82C23.9234 34.1802 23.9655 34.5046 24.0498 34.7933C24.1367 35.082 24.2593 35.3285 24.4177 35.5328C24.5761 35.7372 24.7677 35.8943 24.9925 36.0041C25.2173 36.114 25.4701 36.1689 25.7512 36.1689C26.0398 36.1689 26.2927 36.1268 26.5099 36.0425C26.7295 35.9582 26.9135 35.8368 27.0616 35.6785C27.2098 35.5175 27.3235 35.3234 27.4027 35.096C27.4844 34.8687 27.533 34.6107 27.5483 34.322H26.8394C26.8215 34.5442 26.7909 34.7346 26.7475 34.8929C26.704 35.0487 26.6402 35.1778 26.5559 35.2799C26.4741 35.3796 26.3668 35.4536 26.234 35.5022C26.1037 35.5482 25.9428 35.5711 25.7512 35.5711C25.5468 35.5711 25.3731 35.5264 25.2301 35.437C25.087 35.3451 24.9708 35.2199 24.8814 35.0615C24.7945 34.9031 24.7307 34.7179 24.6898 34.5059C24.6515 34.2939 24.6323 34.0653 24.6323 33.82V32.7816C24.6323 32.5185 24.6553 32.2796 24.7013 32.0651C24.7498 31.8505 24.8226 31.6678 24.9197 31.5171C25.0168 31.3664 25.1394 31.2502 25.2875 31.1684C25.4357 31.0841 25.612 31.042 25.8163 31.042C25.9875 31.042 26.1343 31.0675 26.257 31.1186C26.3796 31.1671 26.4818 31.2438 26.5635 31.3485C26.6452 31.4507 26.7078 31.581 26.7512 31.7393C26.7947 31.8977 26.8241 32.0868 26.8394 32.3064H27.5482C27.5355 32.005 27.4882 31.7381 27.4065 31.5056C27.3247 31.2731 27.2111 31.0777 27.0654 30.9193C26.9198 30.7609 26.7423 30.6409 26.5328 30.5591C26.3259 30.4774 26.0871 30.4365 25.8163 30.4365L25.8163 30.4366ZM12.5508 30.5132L10.7537 36.0922H11.4741L11.907 34.6362H13.7923L14.2329 36.0922H14.9533L13.1524 30.5132H12.5508ZM15.7119 30.5132V36.0922H16.4131V33.9081H17.4898C17.7581 33.9081 17.9956 33.8711 18.2026 33.797C18.4095 33.7204 18.5832 33.6105 18.7237 33.4675C18.8667 33.3244 18.974 33.1482 19.0455 32.9387C19.1196 32.7267 19.1566 32.4865 19.1566 32.2183C19.1566 31.9705 19.1196 31.7432 19.0455 31.5362C18.974 31.3268 18.868 31.1467 18.7275 30.9959C18.587 30.8427 18.412 30.7239 18.2026 30.6396C17.9956 30.5553 17.7581 30.5132 17.4898 30.5132L15.7119 30.5132ZM19.6931 30.5132V31.1186H21.1568V36.0922H21.858V31.1186H23.3256V30.5132H19.6931ZM28.4947 30.5132V36.0922H29.1959V33.5135H31.4413V36.0922H32.1464V30.5132H31.4413V32.9119H29.1959V30.5132H28.4947ZM34.8056 30.5132L33.0085 36.0922H33.7289L34.1619 34.6362H36.0471L36.4878 36.0922H37.2082L35.4072 30.5132H34.8056ZM16.413 31.1186H17.4898C17.6609 31.1186 17.8065 31.1493 17.9266 31.2106C18.0492 31.2719 18.1488 31.3537 18.2255 31.4558C18.3047 31.558 18.3621 31.6768 18.3979 31.8122C18.4362 31.945 18.4554 32.083 18.4554 32.226C18.4554 32.3844 18.4362 32.53 18.3979 32.6628C18.3621 32.7931 18.3047 32.9068 18.2255 33.0039C18.1488 33.0984 18.0492 33.1725 17.9266 33.2261C17.8065 33.2798 17.6609 33.3066 17.4898 33.3066H16.413V31.1186ZM12.8496 31.4942L13.6121 34.0308H12.0909L12.8496 31.4942ZM35.1044 31.4942L35.867 34.0308H34.3457L35.1044 31.4942ZM2.09797 31.8697C1.92171 31.8697 1.7697 31.9144 1.64197 32.0038C1.5168 32.0932 1.41207 32.2145 1.32778 32.3678L1.31628 31.9463H0.657227V36.0923H1.33546V33.1264C1.39932 32.9501 1.49001 32.8109 1.60751 32.7087C1.72758 32.6065 1.87957 32.5555 2.06351 32.5555C2.12226 32.5555 2.17463 32.5581 2.22061 32.5631C2.26659 32.5657 2.3164 32.572 2.37005 32.5823L2.36621 31.9232C2.35599 31.9181 2.33939 31.913 2.3164 31.9079C2.29597 31.9002 2.27297 31.8938 2.24743 31.8887C2.22188 31.8836 2.19506 31.8797 2.16696 31.8772C2.14141 31.8721 2.11842 31.8695 2.09799 31.8695L2.09797 31.8697ZM4.37787 31.8697C4.18117 31.8697 3.99086 31.9042 3.80695 31.9731C3.62302 32.0421 3.45954 32.1558 3.31649 32.3142C3.176 32.47 3.06232 32.6744 2.97546 32.9273C2.88861 33.1776 2.84518 33.4854 2.84518 33.8507V34.3182C2.84518 34.635 2.88222 34.9096 2.9563 35.142C3.03038 35.3745 3.1364 35.5674 3.27433 35.7206C3.41483 35.8714 3.5847 35.9838 3.78396 36.0578C3.98321 36.1319 4.20674 36.169 4.45453 36.169C4.63335 36.169 4.79301 36.1511 4.9335 36.1153C5.07655 36.0796 5.203 36.0336 5.31285 35.9774C5.4227 35.9186 5.51721 35.8522 5.5964 35.7781C5.67559 35.704 5.74329 35.6274 5.79949 35.5482L5.44697 35.1191C5.39077 35.188 5.33074 35.2519 5.26687 35.3107C5.20301 35.3668 5.13276 35.4167 5.05613 35.4601C4.97949 35.501 4.89519 35.5329 4.80323 35.5559C4.71127 35.5789 4.60781 35.5904 4.49286 35.5904C4.17867 35.5904 3.93725 35.4895 3.76865 35.2877C3.60261 35.0859 3.51959 34.7627 3.51959 34.3182V34.2224H5.83398V33.8277C5.83398 33.511 5.80716 33.2313 5.75352 32.9886C5.69987 32.7459 5.6143 32.5415 5.49679 32.3755C5.37928 32.2095 5.22856 32.0843 5.04462 32C4.8607 31.9131 4.63847 31.8697 4.37788 31.8697L4.37787 31.8697ZM4.37787 32.4521C4.52603 32.4521 4.64865 32.4789 4.74574 32.5326C4.84281 32.5862 4.91944 32.6616 4.97564 32.7587C5.0344 32.8557 5.07655 32.972 5.10209 33.1074C5.13019 33.2402 5.14807 33.3871 5.15574 33.548V33.64H3.5234C3.53362 33.4075 3.56172 33.2146 3.6077 33.0614C3.65368 32.9081 3.71371 32.7867 3.78779 32.6973C3.86443 32.6054 3.95256 32.5415 4.05219 32.5058C4.15181 32.47 4.26038 32.4521 4.3779 32.4521L4.37787 32.4521Z" fill="#A6A6A6"/>
</g>
<defs>
<clipPath id="clip0_7100_30238">
<rect width="37.2973" height="35.7432" fill="white" transform="translate(0.28418 0.962891)"/>
</clipPath>
</defs>
</svg>
