<svg width="32" height="32" viewBox="0 0 32 32" fill="none" xmlns="http://www.w3.org/2000/svg">
<g id="&#229;&#155;&#190;&#229;&#177;&#130;_x0020_1">
<path id="Vector" fill-rule="evenodd" clip-rule="evenodd" d="M16.005 2.0083C23.7357 2.0083 30.0052 8.27774 30.0052 16.0085C30.0052 23.7392 23.7357 30.0086 16.005 30.0086C8.27432 30.0086 2.00488 23.7392 2.00488 16.0085C2.00488 8.27774 8.27432 2.0083 16.005 2.0083ZM13.0977 20.5558L9.67015 17.1254C9.08621 16.5411 9.08609 15.5883 9.67015 15.0041C10.2543 14.4201 11.2114 14.4237 11.7913 15.0041L14.2077 17.4224L20.219 11.4112C20.8032 10.827 21.7561 10.827 22.3401 11.4112C22.9243 11.9953 22.9235 12.949 22.3401 13.5324L15.2666 20.6059C14.6833 21.1892 13.7295 21.1901 13.1454 20.6059C13.129 20.5895 13.1132 20.5728 13.0977 20.5558Z" fill="#18BB54"/>
</g>
</svg>
