<svg width="18" height="18" viewBox="0 0 18 18" fill="none" xmlns="http://www.w3.org/2000/svg">
<g id="coins-swap" clip-path="url(#clip0_7170_14425)">
<g id="elements">
<path id="Vector" d="M7.5 5.2701C7.86225 3.12992 9.72484 1.5 11.9681 1.5C14.471 1.5 16.5 3.52899 16.5 6.03187C16.5 8.27516 14.8701 10.1378 12.7299 10.5" stroke="#67779A" stroke-width="1.4" stroke-linecap="round" stroke-linejoin="round"/>
<path id="Vector_2" d="M6 16.5C8.48528 16.5 10.5 14.4853 10.5 12C10.5 9.51472 8.48528 7.5 6 7.5C3.51472 7.5 1.5 9.51472 1.5 12C1.5 14.4853 3.51472 16.5 6 16.5Z" stroke="#67779A" stroke-width="1.4" stroke-linecap="round" stroke-linejoin="round"/>
<path id="Vector_3" d="M1.5 6.75C1.5 4.26214 3.51214 2.25 6 2.25L5.35714 3.53571" stroke="#67779A" stroke-width="1.4" stroke-linecap="round" stroke-linejoin="round"/>
<path id="Vector_4" d="M16.5 11.25C16.5 13.7379 14.4879 15.75 12 15.75L12.6429 14.4643" stroke="#67779A" stroke-width="1.4" stroke-linecap="round" stroke-linejoin="round"/>
</g>
</g>
<defs>
<clipPath id="clip0_7170_14425">
<rect width="18" height="18" fill="white"/>
</clipPath>
</defs>
</svg>
