<svg width="18" height="18" viewBox="0 0 18 18" fill="none" xmlns="http://www.w3.org/2000/svg">
<path d="M9.01562 17.0312C13.4425 17.0312 17.0312 13.4425 17.0312 9.01562C17.0312 4.58872 13.4425 1 9.01562 1C4.58872 1 1 4.58872 1 9.01562C1 13.4425 4.58872 17.0312 9.01562 17.0312Z" fill="#FEDA2C"/>
<path d="M9.00035 15.179C12.413 15.179 15.1794 12.4126 15.1794 8.99999C15.1794 5.58738 12.413 2.82092 9.00035 2.82092C5.58775 2.82092 2.82129 5.58738 2.82129 8.99999C2.82129 12.4126 5.58775 15.179 9.00035 15.179Z" fill="#FCAA17"/>
<path d="M8.99968 4.25137L10.4049 7.09875L13.5471 7.55536L11.2734 9.77175L11.8102 12.9012L8.99968 11.4237L6.18915 12.9012L6.72591 9.77175L4.45215 7.55536L7.59441 7.09875L8.99968 4.25137Z" fill="#FEDA2C"/>
</svg>
