<svg width="18" height="18" viewBox="0 0 18 18" fill="none" xmlns="http://www.w3.org/2000/svg">
<rect x="3" y="1.5" width="13.125" height="15" rx="4" stroke="#4B5F87" stroke-width="1.4"/>
<path d="M7.94252 10.3056C7.47093 10.6215 6.23445 11.2665 6.98755 12.0737C7.35544 12.468 7.76516 12.75 8.28029 12.75H11.2197C11.7348 12.75 12.1446 12.468 12.5124 12.0737C13.2655 11.2665 12.0291 10.6215 11.5575 10.3056C10.4516 9.5648 9.0484 9.5648 7.94252 10.3056Z" stroke="#4B5F87" stroke-width="1.4"/>
<path d="M11.25 6.75C11.25 7.57843 10.5784 8.25 9.75 8.25C8.92157 8.25 8.25 7.57843 8.25 6.75C8.25 5.92157 8.92157 5.25 9.75 5.25C10.5784 5.25 11.25 5.92157 11.25 6.75Z" stroke="#4B5F87" stroke-width="1.4"/>
<path d="M3.75 4.5L1.875 4.5M3.75 9L1.875 9M3.75 13.5H1.875" stroke="#4B5F87" stroke-width="1.4" stroke-linecap="round" stroke-linejoin="round"/>
</svg>
