<svg width="16" height="18" viewBox="0 0 16 18" fill="none" xmlns="http://www.w3.org/2000/svg">
<g id="elements">
<rect id="Rectangle 17837" x="2" y="1.5" width="13.125" height="15" rx="4" stroke="#0E285E" stroke-width="1.5"/>
<g id="Vector">
<path d="M6.94252 10.3056C6.47093 10.6215 5.23445 11.2665 5.98755 12.0737C6.35544 12.468 6.76516 12.75 7.28029 12.75H10.2197C10.7348 12.75 11.1446 12.468 11.5124 12.0737C12.2655 11.2665 11.0291 10.6215 10.5575 10.3056C9.4516 9.5648 8.0484 9.5648 6.94252 10.3056Z" stroke="#0E285E" stroke-width="1.5"/>
<path d="M10.25 6.75C10.25 7.57843 9.57843 8.25 8.75 8.25C7.92157 8.25 7.25 7.57843 7.25 6.75C7.25 5.92157 7.92157 5.25 8.75 5.25C9.57843 5.25 10.25 5.92157 10.25 6.75Z" stroke="#0E285E" stroke-width="1.5"/>
</g>
<path id="Vector_2" d="M2.75 4.5L0.875 4.5M2.75 9L0.875 9M2.75 13.5H0.875" stroke="#0E285E" stroke-width="1.5" stroke-linecap="round" stroke-linejoin="round"/>
</g>
</svg>
