<svg width="18" height="18" viewBox="0 0 18 18" fill="none" xmlns="http://www.w3.org/2000/svg">
<g id="elements">
<path id="Ellipse 1631" d="M11.25 3.75C11.25 4.99264 10.2426 6 9 6C7.75736 6 6.75 4.99264 6.75 3.75C6.75 2.50736 7.75736 1.5 9 1.5C10.2426 1.5 11.25 2.50736 11.25 3.75Z" fill="#E94B50" stroke="#E94B50" stroke-width="1.4"/>
<path id="Ellipse 1632" d="M6 14.25C6 15.4926 4.99264 16.5 3.75 16.5C2.50736 16.5 1.5 15.4926 1.5 14.25C1.5 13.0074 2.50736 12 3.75 12C4.99264 12 6 13.0074 6 14.25Z" fill="#E94B50" stroke="#E94B50" stroke-width="1.4"/>
<path id="Ellipse 1633" d="M16.5 14.25C16.5 15.4926 15.4926 16.5 14.25 16.5C13.0074 16.5 12 15.4926 12 14.25C12 13.0074 13.0074 12 14.25 12C15.4926 12 16.5 13.0074 16.5 14.25Z" fill="#E94B50" stroke="#E94B50" stroke-width="1.4"/>
<path id="Vector 4870" d="M9 6V9M9 9H6.375C5.13756 9 4.51884 9 4.13442 9.3295C3.75 9.65901 3.75 10.1893 3.75 11.25V12M9 9H11.625C12.8624 9 13.4812 9 13.8656 9.3295C14.25 9.65901 14.25 10.1893 14.25 11.25V12" stroke="#E94B50" stroke-width="1.4" stroke-linecap="round" stroke-linejoin="round"/>
</g>
</svg>
