<svg width="20" height="20" viewBox="0 0 20 20" fill="none" xmlns="http://www.w3.org/2000/svg">
<g id="elements">
<path id="Rectangle 2167" d="M11.7284 3.2382C12.3494 2.56539 12.6599 2.22899 12.9898 2.03276C13.7859 1.55929 14.7662 1.54457 15.5756 1.99393C15.9111 2.18016 16.2311 2.50709 16.8712 3.16096C17.5113 3.81483 17.8313 4.14176 18.0136 4.48443C18.4535 5.31126 18.4391 6.31265 17.9756 7.12591C17.7835 7.46296 17.4542 7.78014 16.7956 8.4145L8.95918 15.9622C7.71106 17.1644 7.08699 17.7655 6.30704 18.0701C5.52709 18.3747 4.66966 18.3523 2.9548 18.3075L2.72147 18.3014C2.19941 18.2877 1.93838 18.2809 1.78665 18.1087C1.63491 17.9365 1.65563 17.6706 1.69706 17.1388L1.71956 16.85C1.83617 15.3533 1.89447 14.6049 2.18675 13.9322C2.47903 13.2594 2.98319 12.7132 3.99151 11.6207L11.7284 3.2382Z" stroke="#141B34" stroke-width="1.5" stroke-linejoin="round"/>
<path id="Vector 4200" d="M10.834 3.33398L16.6673 9.16732" stroke="#141B34" stroke-width="1.5" stroke-linejoin="round"/>
<path id="Vector 4201" d="M11.667 18.334L18.3337 18.334" stroke="#141B34" stroke-width="1.5" stroke-linecap="round" stroke-linejoin="round"/>
</g>
</svg>
