<svg width="18" height="18" viewBox="0 0 18 18" fill="none" xmlns="http://www.w3.org/2000/svg">
<path d="M13.5 1.5V3M4.5 1.5V3" stroke="#67779A" stroke-width="1.5" stroke-linecap="round" stroke-linejoin="round"/>
<path d="M2.25 6H15.75" stroke="#67779A" stroke-width="1.5" stroke-linecap="round" stroke-linejoin="round"/>
<path d="M1.875 9.18243C1.875 5.91445 1.875 4.28046 2.81409 3.26523C3.75318 2.25 5.26462 2.25 8.2875 2.25H9.7125C12.7354 2.25 14.2468 2.25 15.1859 3.26523C16.125 4.28046 16.125 5.91445 16.125 9.18243V9.56757C16.125 12.8355 16.125 14.4695 15.1859 15.4848C14.2468 16.5 12.7354 16.5 9.7125 16.5H8.2875C5.26462 16.5 3.75318 16.5 2.81409 15.4848C1.875 14.4695 1.875 12.8355 1.875 9.56757V9.18243Z" stroke="#67779A" stroke-width="1.5" stroke-linecap="round" stroke-linejoin="round"/>
<path d="M9.4535 9.0041L9.91545 9.93563C9.97845 10.0653 10.1464 10.1897 10.2882 10.2135L11.1254 10.3538C11.6609 10.4437 11.7869 10.8354 11.401 11.2218L10.7501 11.8781C10.6399 11.9892 10.5795 12.2036 10.6136 12.3571L10.8 13.1695C10.947 13.8126 10.6084 14.0614 10.0441 13.7253L9.25928 13.2569C9.11754 13.1722 8.88394 13.1722 8.73958 13.2569L7.9548 13.7253C7.39311 14.0614 7.05189 13.81 7.19888 13.1695L7.38523 12.3571C7.41935 12.2036 7.35899 11.9892 7.24875 11.8781L6.59782 11.2218C6.21461 10.8354 6.33797 10.4437 6.87341 10.3538L7.7107 10.2135C7.84981 10.1897 8.01779 10.0653 8.08078 9.93563L8.54273 9.0041C8.7947 8.49863 9.20416 8.49863 9.4535 9.0041Z" stroke="#67779A" stroke-width="1.5" stroke-linecap="round" stroke-linejoin="round"/>
</svg>
