<svg width="16" height="18" viewBox="0 0 16 18" fill="none" xmlns="http://www.w3.org/2000/svg">
<g id="elements">
<path id="Vector" d="M12.5 1.5V3M3.5 1.5V3" stroke="#E94B50" stroke-width="1.5" stroke-linecap="round" stroke-linejoin="round"/>
<path id="Vector 4046" d="M1.25 6H14.75" stroke="#E94B50" stroke-width="1.5" stroke-linecap="round" stroke-linejoin="round"/>
<path id="Vector_2" d="M0.875 9.18243C0.875 5.91445 0.875 4.28046 1.81409 3.26523C2.75318 2.25 4.26462 2.25 7.2875 2.25H8.7125C11.7354 2.25 13.2468 2.25 14.1859 3.26523C15.125 4.28046 15.125 5.91445 15.125 9.18243V9.56757C15.125 12.8355 15.125 14.4695 14.1859 15.4848C13.2468 16.5 11.7354 16.5 8.7125 16.5H7.2875C4.26462 16.5 2.75318 16.5 1.81409 15.4848C0.875 14.4695 0.875 12.8355 0.875 9.56757V9.18243Z" stroke="#E94B50" stroke-width="1.5" stroke-linecap="round" stroke-linejoin="round"/>
<path id="Vector_3" d="M8.4535 9.0041L8.91545 9.93563C8.97845 10.0653 9.14643 10.1897 9.28816 10.2135L10.1254 10.3538C10.6609 10.4437 10.7869 10.8354 10.401 11.2218L9.75011 11.8781C9.63987 11.9892 9.5795 12.2036 9.61363 12.3571L9.79998 13.1695C9.94696 13.8126 9.60838 14.0614 9.04406 13.7253L8.25928 13.2569C8.11754 13.1722 7.88394 13.1722 7.73958 13.2569L6.9548 13.7253C6.39311 14.0614 6.05189 13.81 6.19888 13.1695L6.38523 12.3571C6.41935 12.2036 6.35899 11.9892 6.24875 11.8781L5.59782 11.2218C5.21461 10.8354 5.33797 10.4437 5.87341 10.3538L6.7107 10.2135C6.84981 10.1897 7.01779 10.0653 7.08078 9.93563L7.54273 9.0041C7.7947 8.49863 8.20416 8.49863 8.4535 9.0041Z" stroke="#E94B50" stroke-width="1.5" stroke-linecap="round" stroke-linejoin="round"/>
</g>
</svg>
