<svg width="16" height="18" viewBox="0 0 16 18" fill="none" xmlns="http://www.w3.org/2000/svg">
<path d="M2.27203 4.72182L1.50857 6.45486C1.37976 6.74725 1.31535 6.89345 1.28268 7.04879C1.25 7.20414 1.25 7.36412 1.25 7.68409V14.9867C1.25 15.7001 1.25 16.0568 1.46967 16.2784C1.68934 16.5 2.04289 16.5 2.75 16.5H13.25C13.9571 16.5 14.3107 16.5 14.5303 16.2784C14.75 16.0568 14.75 15.7001 14.75 14.9867V7.37796C14.75 7.02233 14.75 6.84451 14.7099 6.67303C14.6697 6.50154 14.5909 6.3425 14.4333 6.02441L13.7415 4.62848C13.4983 4.13786 13.3767 3.89255 13.1831 3.70839C12.9895 3.52423 12.7397 3.41619 12.2399 3.20012L9.18176 1.87784C8.59918 1.62595 8.30789 1.5 8 1.5C7.69211 1.5 7.40082 1.62595 6.81824 1.87784L3.83171 3.16914C3.2973 3.40021 3.0301 3.51574 2.82817 3.71676C2.62623 3.91779 2.50817 4.1858 2.27203 4.72182Z" stroke="#67779A" stroke-width="1.125" stroke-linecap="round" stroke-linejoin="round"/>
<path d="M4.25 16.5V9.75M11.75 9.75V16.5" stroke="#67779A" stroke-width="1.125" stroke-linecap="round" stroke-linejoin="round"/>
<path d="M1.25 9.75H14.75" stroke="#67779A" stroke-width="1.125" stroke-linecap="round" stroke-linejoin="round"/>
</svg>
