<svg width="20" height="20" viewBox="0 0 20 20" fill="none" xmlns="http://www.w3.org/2000/svg">
<path d="M10.834 15C10.834 15 11.6673 15 12.5007 16.6667C12.5007 16.6667 15.1477 12.5 17.5007 11.6667" stroke="#4B5F87" stroke-width="1.25" stroke-linecap="round" stroke-linejoin="round"/>
<path d="M9.16699 18.3333H8.93972C6.22205 18.3333 4.86321 18.3333 3.91955 17.6685C3.64918 17.478 3.40914 17.2521 3.20674 16.9976C2.50033 16.1095 2.50033 14.8305 2.50033 12.2727V10.1515C2.50033 7.68222 2.50033 6.44756 2.89111 5.46147C3.51934 3.8762 4.84794 2.62575 6.53229 2.03447C7.58002 1.66668 8.89184 1.66668 11.5155 1.66668C13.0147 1.66668 13.7643 1.66668 14.363 1.87684C15.3255 2.21472 16.0847 2.92926 16.4437 3.83513C16.667 4.39861 16.667 5.10413 16.667 6.51516V8.33334" stroke="#4B5F87" stroke-width="1.25" stroke-linecap="round" stroke-linejoin="round"/>
<path d="M2.50065 10C2.50065 8.46591 3.7443 7.22225 5.27843 7.22225C5.83325 7.22225 6.48735 7.31947 7.02679 7.17493C7.50608 7.0465 7.88045 6.67213 8.00888 6.19283C8.15342 5.65339 8.05621 4.99929 8.05621 4.44447C8.05621 2.91035 9.29986 1.6667 10.834 1.6667" stroke="#4B5F87" stroke-width="1.25" stroke-linecap="round" stroke-linejoin="round"/>
</svg>
