<svg width="18" height="18" viewBox="0 0 18 18" fill="none" xmlns="http://www.w3.org/2000/svg">
<g clip-path="url(#clip0_10555_15257)">
<path d="M2.84159 6.77781C2.31105 7.065 0.920012 7.6514 1.76725 8.38519C2.18112 8.74364 2.64206 9 3.22158 9H6.52842C7.10794 9 7.56888 8.74364 7.98275 8.38519C8.82999 7.6514 7.43895 7.065 6.90841 6.77781C5.6643 6.10437 4.0857 6.10437 2.84159 6.77781Z" stroke="#67779A" stroke-width="1.3"/>
<path d="M6.5625 3.20455C6.5625 4.14594 5.80698 4.90909 4.875 4.90909C3.94302 4.90909 3.1875 4.14594 3.1875 3.20455C3.1875 2.26315 3.94302 1.5 4.875 1.5C5.80698 1.5 6.5625 2.26315 6.5625 3.20455Z" stroke="#67779A" stroke-width="1.3"/>
<path d="M3 11.25C3 13.7379 5.01214 15.75 7.5 15.75L6.85714 14.4643" stroke="#67779A" stroke-width="1.4" stroke-linecap="round" stroke-linejoin="round"/>
<path d="M15 6.75C15 4.26214 12.9879 2.25 10.5 2.25L11.1429 3.53571" stroke="#67779A" stroke-width="1.4" stroke-linecap="round" stroke-linejoin="round"/>
<path d="M11.0916 14.2778C10.5611 14.565 9.17001 15.1514 10.0172 15.8852C10.4311 16.2436 10.8921 16.5 11.4716 16.5H14.7784C15.3579 16.5 15.8189 16.2436 16.2328 15.8852C17.08 15.1514 15.6889 14.565 15.1584 14.2778C13.9143 13.6044 12.3357 13.6044 11.0916 14.2778Z" stroke="#67779A" stroke-width="1.3"/>
<path d="M14.8125 10.7045C14.8125 11.6459 14.057 12.4091 13.125 12.4091C12.193 12.4091 11.4375 11.6459 11.4375 10.7045C11.4375 9.76315 12.193 9 13.125 9C14.057 9 14.8125 9.76315 14.8125 10.7045Z" stroke="#67779A" stroke-width="1.3"/>
</g>
<defs>
<clipPath id="clip0_10555_15257">
<rect width="18" height="18" fill="white"/>
</clipPath>
</defs>
</svg>
