<svg width="18" height="16" viewBox="0 0 18 16" fill="none" xmlns="http://www.w3.org/2000/svg">
<g id="elements">
<path id="Vector" d="M5.25 3.875H12.5625C14.1425 3.875 14.9325 3.875 15.5 4.25419C15.7457 4.41835 15.9567 4.62929 16.1208 4.87497C16.4684 5.3952 16.4974 5.94486 16.4998 7.25M9 3.875L8.52492 2.92484C8.13134 2.13768 7.77167 1.34534 6.89944 1.01826C6.51742 0.875 6.08102 0.875 5.2082 0.875C3.84585 0.875 3.16467 0.875 2.65355 1.16024C2.2892 1.36357 1.98857 1.6642 1.78524 2.02855C1.5 2.53967 1.5 3.22085 1.5 4.5832V6.875C1.5 10.4105 1.5 12.1783 2.59835 13.2767C3.61612 14.2944 5.2087 14.3691 8.25 14.3746H9" stroke="#4B5F87" stroke-width="1.125" stroke-linecap="round"/>
<path id="Vector_2" d="M13.875 15.125L13.875 9.125M13.875 15.125C13.3498 15.125 12.3686 13.6293 12 13.25M13.875 15.125C14.4002 15.125 15.3814 13.6293 15.75 13.25" stroke="#4B5F87" stroke-width="1.125" stroke-linecap="round" stroke-linejoin="round"/>
</g>
</svg>
