<svg width="18" height="18" viewBox="0 0 18 18" fill="none" xmlns="http://www.w3.org/2000/svg">
<g id="elements">
<path id="Vector" d="M1.5 9.00001C1.5 9.78894 1.63535 10.5463 1.88409 11.25M9.76024 6.75H16.1262M8.25 11.25H1.88409M16.1262 6.75C15.1995 4.12832 12.6992 2.25 9.76024 2.25C10.9609 2.25 11.942 5.0715 12.0068 8.625M16.1262 6.75C16.3352 7.3415 16.4642 7.97085 16.5 8.625M1.88409 11.25C2.81072 13.8717 5.31101 15.75 8.25 15.75C7.09186 15.75 6.13809 13.125 6.01373 9.75001" stroke="#67779A" stroke-width="1.4" stroke-linecap="round" stroke-linejoin="round"/>
<path id="Rectangle 2293" d="M1.5 3.973C1.5 3.14923 1.5 2.73734 1.64054 2.41791C1.78958 2.07917 2.04646 1.80691 2.36607 1.64895C2.66746 1.5 3.05608 1.5 3.83333 1.5H4.5C5.91421 1.5 6.62132 1.5 7.06066 1.96564C7.5 2.43128 7.5 3.18071 7.5 4.67958V6.37388C7.5 7.02769 7.5 7.3546 7.30195 7.46694C7.10389 7.57928 6.84725 7.39794 6.33397 7.03527L6.25577 6.98002C5.88065 6.71497 5.69309 6.58244 5.48051 6.51422C5.26794 6.44601 5.04252 6.44601 4.59167 6.44601H3.83333C3.05608 6.44601 2.66746 6.44601 2.36607 6.29706C2.04646 6.1391 1.78958 5.86684 1.64054 5.5281C1.5 5.20867 1.5 4.79678 1.5 3.973Z" stroke="#67779A" stroke-width="1.4"/>
<path id="Rectangle 2294" d="M16.5 12.973C16.5 12.1492 16.5 11.7373 16.3595 11.4179C16.2104 11.0792 15.9535 10.8069 15.6339 10.649C15.3325 10.5 14.9439 10.5 14.1667 10.5H13.5C12.0858 10.5 11.3787 10.5 10.9393 10.9656C10.5 11.4313 10.5 12.1807 10.5 13.6796V15.3739C10.5 16.0277 10.5 16.3546 10.6981 16.4669C10.8961 16.5793 11.1527 16.3979 11.666 16.0353L11.7442 15.98C12.1194 15.715 12.3069 15.5824 12.5195 15.5142C12.7321 15.446 12.9575 15.446 13.4083 15.446H14.1667C14.9439 15.446 15.3325 15.446 15.6339 15.2971C15.9535 15.1391 16.2104 14.8668 16.3595 14.5281C16.5 14.2087 16.5 13.7968 16.5 12.973Z" stroke="#67779A" stroke-width="1.4"/>
</g>
</svg>
