<svg width="16" height="18" viewBox="0 0 16 18" fill="none" xmlns="http://www.w3.org/2000/svg">
<path d="M9.21331 16.0252C8.88804 16.3298 8.45329 16.5 8.00084 16.5C7.54839 16.5 7.11364 16.3298 6.78837 16.0252C3.80977 13.2195 -0.181928 10.0852 1.7647 5.53475C2.81723 3.07437 5.34376 1.5 8.00084 1.5C10.6579 1.5 13.1845 3.07437 14.237 5.53475C16.1811 10.0795 12.1993 13.2292 9.21331 16.0252Z" stroke="#67779A" stroke-width="1.125"/>
<path d="M10.625 8.25C10.625 9.69975 9.44975 10.875 8 10.875C6.55025 10.875 5.375 9.69975 5.375 8.25C5.375 6.80025 6.55025 5.625 8 5.625C9.44975 5.625 10.625 6.80025 10.625 8.25Z" stroke="#67779A" stroke-width="1.125"/>
</svg>
