<svg width="130" height="28" viewBox="0 0 130 28" fill="none" xmlns="http://www.w3.org/2000/svg">
<g id="Layer_x0020_1">
<path id="Vector" d="M17.3159 9.51507L20.1429 9.51765H20.352C20.2648 8.69311 19.6476 8.01883 19.4446 7.84486C19.1789 7.6159 18.8852 7.44056 18.575 7.31598C18.0605 7.1092 17.4979 7.03581 16.9377 7.08686C16.3707 7.13806 15.8038 7.31856 15.2894 7.61741C14.7828 7.91247 14.3299 8.32634 13.9811 8.8499C13.5487 8.59982 13.0465 8.4564 12.5114 8.4564C12.4683 8.4564 12.426 8.45761 12.3838 8.45928C12.8923 7.50392 13.6413 6.76279 14.5037 6.26095C15.2123 5.8489 16.0007 5.60003 16.7969 5.52756C17.6008 5.45463 18.4124 5.56129 19.1585 5.86121C19.6099 6.04247 20.0364 6.2924 20.4223 6.61298C21.6642 7.644 22.2388 9.40492 22.1246 11.0849L21.5042 11.0842L17.3162 11.0804V9.51522L17.3159 9.51507ZM14.0572 13.8996C14.4837 14.4984 15.0571 14.9841 15.7247 15.3032C16.4886 15.6686 17.3763 15.7896 18.2433 15.6836C19.1063 15.5788 19.9367 15.2475 20.5901 14.7094C21.5793 13.894 22.187 12.6897 22.7617 11.4487H24.4852L24.3545 11.7326C23.6514 13.265 22.9497 14.7934 21.5843 15.9186C20.6929 16.6531 19.5768 17.1028 18.4276 17.243C17.2832 17.3822 16.0933 17.2142 15.0493 16.7155C14.0391 16.2324 13.1875 15.471 12.5953 14.5316C12.5555 14.4681 12.5164 14.4037 12.4789 14.3385L12.5111 14.339C13.0781 14.339 13.6081 14.1784 14.0572 13.8999V13.8996Z" fill="#8B231D"/>
<path id="Vector_2" d="M29.9313 13.3825L27.104 13.3803L26.8952 13.3801C26.9821 14.205 27.5995 14.8791 27.8023 15.0534C28.0685 15.2819 28.3622 15.4575 28.672 15.5821C29.1866 15.7889 29.7495 15.8627 30.309 15.8117C30.8768 15.7598 31.4438 15.58 31.9578 15.2806C32.5309 14.9473 33.0346 14.4617 33.3971 13.8376C33.8344 14.1325 34.3554 14.3131 34.9171 14.3362C34.4084 15.3417 33.637 16.1173 32.7433 16.6373C32.0352 17.0496 31.2471 17.2982 30.4508 17.3707C29.6466 17.444 28.8354 17.3372 28.0891 17.0373C27.6379 16.8559 27.2108 16.6063 26.8247 16.2854C25.5833 15.2547 25.0087 13.4934 25.1226 11.8137L25.743 11.8141L29.9313 11.8176V13.3828V13.3825ZM33.2406 9.0714C32.8097 8.43936 32.2169 7.92658 31.5225 7.59445C30.7586 7.22935 29.8704 7.10872 29.0036 7.21416C28.1403 7.31945 27.31 7.65006 26.6573 8.18821C25.6673 9.00394 25.0597 10.2079 24.4853 11.4487H22.7617L22.8924 11.1652C23.5955 9.63325 24.2972 8.1048 25.6626 6.97912C26.5538 6.24467 27.6706 5.79525 28.8193 5.65516C29.9642 5.51569 31.1543 5.68357 32.1977 6.18283C33.2081 6.66598 34.0592 7.42687 34.6516 8.36628C34.6741 8.40228 34.696 8.43799 34.7179 8.47384C34.165 8.53462 33.6584 8.74793 33.2408 9.07125L33.2406 9.0714Z" fill="#E31E24"/>
<path id="Vector_3" fill-rule="evenodd" clip-rule="evenodd" d="M12.511 9.10635C13.776 9.10635 14.8019 10.1325 14.8019 11.3978C14.8019 12.663 13.7759 13.6888 12.511 13.6888C11.2453 13.6888 10.2197 12.663 10.2197 11.3978C10.2197 10.1325 11.2454 9.10635 12.511 9.10635Z" fill="#8B231D"/>
<path id="Vector_4" fill-rule="evenodd" clip-rule="evenodd" d="M35.04 9.10635C36.3053 9.10635 37.3312 10.1325 37.3312 11.3978C37.3312 12.663 36.3053 13.6888 35.04 13.6888C33.7747 13.6888 32.749 12.663 32.749 11.3978C32.749 10.1325 33.7747 9.10635 35.04 9.10635Z" fill="#E31E24"/>
<path id="Vector_5" d="M38.8633 6.18711H40.9548V7.40243C41.7798 6.02135 43.0308 5.33051 44.7123 5.33051C46.3937 5.33051 47.8102 5.90679 48.9669 7.05921C50.123 8.21178 50.7035 9.58907 50.7035 11.1835C50.7035 12.7621 50.1231 14.1319 48.9669 15.2921C47.8102 16.4525 46.3937 17.0329 44.7123 17.0329C43.0308 17.0329 41.7798 16.338 40.9548 14.9409V20.4349H38.8633V6.18696V6.18711ZM40.9548 10.2919V12.0717C41.0931 12.8216 41.4524 13.4806 42.0285 14.0488C42.7864 14.7986 43.6784 15.1736 44.7123 15.1736C45.7464 15.1736 46.6463 14.787 47.412 14.0214C48.1776 13.2554 48.5644 12.3082 48.5644 11.1835C48.5644 10.0511 48.1775 9.09969 47.412 8.32634C46.6463 7.55664 45.7464 7.16982 44.7123 7.16982C43.6784 7.16982 42.7704 7.56454 41.9852 8.34974C41.4364 8.89853 41.0931 9.54561 40.9548 10.2919Z" fill="#E31E24"/>
<path id="Vector_6" d="M59.3286 6.18709V16.7564H57.2486V6.18709H59.3286ZM58.2983 2.76508C58.7247 2.76508 59.0762 2.90318 59.3561 3.1756C59.6405 3.44787 59.7783 3.75599 59.7783 4.09526C59.7783 4.45033 59.6404 4.76225 59.3561 5.03877C59.0762 5.31119 58.7247 5.4493 58.2983 5.4493C57.8603 5.4493 57.5011 5.31119 57.2252 5.03877C56.9487 4.7624 56.8066 4.45033 56.8066 4.09526C56.8066 3.75599 56.9487 3.44787 57.2252 3.1756C57.5011 2.90318 57.8603 2.76508 58.2983 2.76508Z" fill="#E31E24"/>
<path id="Vector_7" fill-rule="evenodd" clip-rule="evenodd" d="M69.6344 6.88141C70.218 7.4618 70.6116 8.34575 70.6116 9.66667V16.5952V16.7564H70.4504H68.7018H68.5406V16.5952V10.3425C68.5406 9.4728 68.4201 8.82328 68.1015 8.40015C67.7908 7.98856 67.2756 7.78132 66.4761 7.78132C65.9286 7.78132 65.1368 7.98704 64.5771 8.69277C64.1789 9.19567 63.8954 9.95489 63.8954 11.0777V16.5952V16.7564H63.734H61.9856H61.8242V16.5952V6.34843V6.18692H61.9856H63.6348H63.7962V6.34843V7.38492C63.9969 7.13666 64.2691 6.85057 64.6207 6.59562C65.1581 6.20606 65.8801 5.88928 66.814 5.88928C67.7662 5.88928 68.8618 6.11293 69.6342 6.88141H69.6344Z" fill="#E31E24"/>
<path id="Vector_8" d="M78.5797 6.1871V2.0823H80.6597V6.1871H82.6249V7.99087H80.6597V16.7564H78.5797V7.99087H76.6143V6.1871H78.5797ZM89.583 5.32245C91.2686 5.32245 92.6892 5.89873 93.8377 7.05526C94.986 8.21178 95.5582 9.58906 95.5582 11.1835C95.5582 12.7621 94.986 14.1319 93.8377 15.2921C92.6892 16.4525 91.2686 17.0329 89.583 17.0329C87.9098 17.0329 86.4929 16.4525 85.3322 15.2921C84.1721 14.1319 83.5917 12.7622 83.5917 11.1835C83.5917 9.58906 84.1721 8.21178 85.3322 7.05526C86.4929 5.89889 87.9098 5.32245 89.583 5.32245ZM89.583 7.16966C88.5412 7.16966 87.6374 7.55649 86.8756 8.32619C86.1138 9.09953 85.7309 10.0509 85.7309 11.1833C85.7309 12.3081 86.1138 13.2516 86.8756 14.0173C87.6374 14.7791 88.5412 15.1619 89.583 15.1619C90.613 15.1619 91.5129 14.779 92.2828 14.0173C93.0484 13.2516 93.4311 12.3081 93.4311 11.1833C93.4311 10.0509 93.0484 9.09953 92.2828 8.32619C91.5129 7.55649 90.613 7.16966 89.583 7.16966ZM101.976 16.8945C100.575 16.8945 99.4656 16.4878 98.6526 15.671C97.8398 14.854 97.4213 13.8516 97.3973 12.6636V6.1751H99.4896V12.5808C99.4896 13.2909 99.7418 13.8908 100.244 14.3843C100.713 14.858 101.285 15.0907 101.964 15.0907C102.58 15.0907 103.132 14.8502 103.618 14.3688C104.103 13.8871 104.348 13.2909 104.348 12.5809V6.17525H106.44V12.6638C106.416 13.8516 105.994 14.8619 105.169 15.6907C104.368 16.4958 103.302 16.8947 101.976 16.8947V16.8945ZM117.273 13.3819L119.262 14.108C118.872 14.6409 118.556 15.0277 118.327 15.2647C117.155 16.4448 115.726 17.0329 114.037 17.0329C112.364 17.0329 110.946 16.4525 109.786 15.2921C108.626 14.1319 108.045 12.7584 108.045 11.1718C108.045 9.58511 108.626 8.21178 109.786 7.05526C110.946 5.89889 112.364 5.32245 114.037 5.32245C115.726 5.32245 117.139 5.89099 118.28 7.03186C118.544 7.29638 118.872 7.6908 119.262 8.22348L117.273 8.96173C116.997 8.6141 116.808 8.38909 116.709 8.28273C115.959 7.54069 115.071 7.16966 114.037 7.16966C113.003 7.16966 112.107 7.55254 111.342 8.32224C110.58 9.08783 110.197 10.0388 110.197 11.1716C110.197 12.2964 110.58 13.2437 111.342 14.0091C112.107 14.7752 113.003 15.1619 114.037 15.1619C115.071 15.1619 115.975 14.7711 116.752 13.9935C116.823 13.9222 116.997 13.7173 117.273 13.3818L117.273 13.3819ZM120.948 0.116729H123.044V6.18695C123.399 5.80408 124.129 5.61082 125.238 5.61082C126.572 5.61082 127.65 6.01739 128.466 6.83419C129.283 7.65129 129.698 8.6495 129.714 9.82988V16.7562H127.633V9.92453C127.633 9.20619 127.389 8.6103 126.903 8.13688C126.418 7.66299 125.866 7.42628 125.238 7.42628C124.622 7.42628 124.077 7.64719 123.608 8.09722C123.34 8.36569 123.15 8.62215 123.044 8.87057V16.7561H120.948V0.116577V0.116729Z" fill="#E31E24"/>
<path id="Vector_9" fill-rule="evenodd" clip-rule="evenodd" d="M9.87739 4.61713L5.27485 9.10496L10.1641 16.6696L10.2203 16.7564H10.1165H7.49719H7.46589L7.44933 16.7295L3.70658 10.6673L2.08332 12.1351V16.7V16.7564H2.0271H0.0566714H0V16.7V0.0568234V0H0.0566714H2.0271H2.08332V0.0568234V9.56486L7.20274 4.53675L7.2193 4.52034H7.24224H9.83864H9.97706L9.87739 4.61713Z" fill="#E31E24"/>
<path id="Vector_10" d="M44.8763 24.2183C45.0225 23.8921 45.1881 23.6416 45.3743 23.467C45.5601 23.2918 45.7493 23.204 45.9429 23.204C46.1185 23.204 46.2568 23.2532 46.356 23.3511C46.4552 23.4491 46.5043 23.5849 46.5043 23.7583C46.5043 23.9163 46.4616 24.0466 46.3772 24.1481C46.2925 24.2492 46.1813 24.2995 46.0445 24.2995C45.9304 24.2995 45.8371 24.2627 45.7615 24.1904C45.687 24.1177 45.649 24.0289 45.649 23.9251C45.649 23.9043 45.6502 23.8751 45.6525 23.8396C45.6545 23.8028 45.6554 23.7797 45.6554 23.766C45.6554 23.7292 45.6525 23.7048 45.6443 23.6948C45.6366 23.6837 45.6211 23.6782 45.5969 23.6782C45.4685 23.6782 45.3284 23.8175 45.175 24.0968C45.0211 24.3762 44.8965 24.7325 44.8008 25.1678L44.5147 26.4502H43.5719L44.1005 24.0778C44.1107 24.029 44.1195 23.9809 44.125 23.9375C44.1304 23.893 44.1327 23.8509 44.1327 23.8116C44.1327 23.7429 44.1184 23.6882 44.0905 23.649C44.0615 23.6103 44.0227 23.5914 43.9723 23.5914C43.8811 23.5914 43.7842 23.636 43.6821 23.7262C43.5795 23.8162 43.4715 23.953 43.3591 24.137L43.1699 24.0099C43.3304 23.7362 43.5107 23.5323 43.7099 23.3976C43.9089 23.264 44.1336 23.1975 44.3866 23.1975C44.5825 23.1975 44.7274 23.2396 44.821 23.3245C44.9143 23.4088 44.9612 23.5404 44.9612 23.7163C44.9612 23.7574 44.9535 23.8218 44.9387 23.912C44.9231 24.0012 44.902 24.1024 44.8763 24.2183Z" fill="#4D4D4D"/>
<path id="Vector_11" d="M47.9409 21.6415C48.0822 21.6415 48.2002 21.6838 48.2937 21.7681C48.3871 21.8529 48.4341 21.9609 48.4341 22.091C48.4341 22.2558 48.3706 22.3995 48.2423 22.5206C48.1156 22.6423 47.9676 22.7033 47.8007 22.7033C47.6916 22.7033 47.5959 22.6575 47.5146 22.5651C47.4331 22.4731 47.3918 22.3661 47.3918 22.2435C47.3918 22.0676 47.443 21.924 47.5469 21.8106C47.6501 21.6979 47.7817 21.6414 47.9409 21.6414V21.6415ZM48.2145 24.2317L47.7984 25.6298C47.7861 25.6734 47.7759 25.7147 47.7695 25.7545C47.763 25.796 47.7593 25.8336 47.7593 25.8714C47.7593 25.9474 47.7741 26.0039 47.8039 26.0406C47.8329 26.0774 47.8786 26.0964 47.9395 26.0964C48.0264 26.0964 48.1188 26.0466 48.2145 25.9463C48.3104 25.8462 48.4084 25.698 48.5085 25.5019L48.7077 25.6032C48.5532 25.9161 48.3797 26.1464 48.187 26.2922C47.9942 26.4384 47.7694 26.5107 47.5135 26.5107C47.2975 26.5107 47.1249 26.455 46.9966 26.3447C46.8688 26.2334 46.8043 26.0842 46.8043 25.8972C46.8043 25.8474 46.8097 25.7904 46.8208 25.7269C46.831 25.6645 46.8476 25.5981 46.8701 25.5286L47.3096 24.0395C47.3177 24.0093 47.3254 23.976 47.3306 23.9415C47.3362 23.9069 47.3383 23.8703 47.3383 23.8298C47.3383 23.7545 47.3239 23.6974 47.295 23.6606C47.2649 23.6238 47.2213 23.6048 47.1627 23.6048C47.0847 23.6048 46.9977 23.6518 46.9021 23.7443C46.8064 23.8365 46.7073 23.9714 46.6025 24.1504L46.4102 24.0328C46.5502 23.7676 46.7251 23.5617 46.9352 23.4158C47.1467 23.2703 47.3698 23.1978 47.6044 23.1978C47.8203 23.1978 47.9886 23.2489 48.1111 23.3525C48.2323 23.4559 48.2935 23.5984 48.2935 23.7788C48.2935 23.8356 48.2867 23.9011 48.2738 23.9781C48.2612 24.0536 48.2411 24.1384 48.2144 24.2319L48.2145 24.2317Z" fill="#4D4D4D"/>
<path id="Vector_12" d="M50.9629 23.5918C50.9053 23.5393 50.8372 23.4991 50.7591 23.4723C50.6827 23.4445 50.5978 23.4313 50.5045 23.4313C50.3431 23.4313 50.2173 23.4702 50.1262 23.5471C50.0347 23.6237 49.9891 23.7306 49.9891 23.8651C49.9891 24.0546 50.1475 24.2238 50.4645 24.3741C50.5103 24.3964 50.5434 24.4119 50.5648 24.4233C50.8763 24.5734 51.0948 24.7235 51.2193 24.8753C51.3429 25.0256 51.405 25.2114 51.405 25.4305C51.405 25.7591 51.2848 26.0216 51.0433 26.2167C50.8015 26.4126 50.4778 26.5106 50.0715 26.5106C49.7084 26.5106 49.4156 26.4369 49.1944 26.2898C48.9718 26.1432 48.8613 25.9527 48.8613 25.7176C48.8613 25.5832 48.8993 25.4719 48.9741 25.3849C49.0485 25.298 49.1451 25.2547 49.2623 25.2547C49.3691 25.2547 49.4562 25.2892 49.5238 25.3572C49.5908 25.4262 49.624 25.5139 49.624 25.6233C49.624 25.6909 49.6063 25.7644 49.5706 25.8436C49.535 25.9226 49.5172 25.9706 49.5172 25.9847C49.5172 26.0505 49.5683 26.1086 49.6698 26.1599C49.7719 26.2108 49.8966 26.2365 50.0435 26.2365C50.2173 26.2365 50.3564 26.1955 50.461 26.113C50.5648 26.0294 50.6171 25.9185 50.6171 25.777C50.6171 25.5765 50.4478 25.3951 50.1096 25.2328C50.0537 25.2038 50.0113 25.1836 49.9826 25.1704C49.703 25.0335 49.5025 24.892 49.3812 24.7462C49.2609 24.6003 49.2008 24.4277 49.2008 24.2276C49.2008 23.9035 49.3176 23.6428 49.5529 23.4459C49.7878 23.2488 50.1005 23.151 50.4923 23.151C50.8295 23.151 51.1036 23.22 51.3161 23.3582C51.5275 23.4959 51.6331 23.673 51.6331 23.8879C51.6331 24.0079 51.5987 24.1041 51.5284 24.1772C51.4597 24.2495 51.3658 24.2863 51.2514 24.2863C51.1402 24.2863 51.0499 24.2543 50.9819 24.1883C50.913 24.1229 50.8787 24.0359 50.8787 23.9278C50.8787 23.8833 50.8852 23.8335 50.8995 23.7776C50.9143 23.7208 50.9355 23.6583 50.963 23.5919L50.9629 23.5918Z" fill="#4D4D4D"/>
<path id="Vector_13" d="M53.9311 21.4878L53.3565 24.194C53.5917 23.8435 53.8196 23.5892 54.0393 23.4325C54.2595 23.2754 54.4957 23.1976 54.7484 23.1976C54.9555 23.1976 55.1188 23.2552 55.2393 23.3702C55.3604 23.486 55.4206 23.6416 55.4206 23.8376C55.4206 23.9134 55.4117 24.0001 55.3928 24.0969C55.375 24.194 55.3472 24.3029 55.3092 24.4254L54.9356 25.591C54.911 25.6688 54.8929 25.7336 54.8832 25.7846C54.8719 25.8357 54.8661 25.8779 54.8661 25.9106C54.8661 25.9692 54.8832 26.0148 54.9152 26.0475C54.9474 26.0798 54.9921 26.0962 55.0488 26.0962C55.1355 26.0962 55.2291 26.0452 55.3283 25.9425C55.4263 25.8404 55.5254 25.6931 55.6232 25.5017L55.8148 25.603C55.6632 25.9194 55.4932 26.1485 55.3058 26.2934C55.1188 26.4382 54.8987 26.5106 54.6458 26.5106C54.4178 26.5106 54.2374 26.4559 54.1071 26.3468C53.977 26.2387 53.9112 26.0908 53.9112 25.9039C53.9112 25.856 53.9169 25.8001 53.9289 25.7366C53.9415 25.6743 53.9591 25.6044 53.9834 25.5284L54.3841 24.2783C54.4143 24.1847 54.4375 24.1003 54.4546 24.0257C54.4713 23.9503 54.4789 23.8877 54.4789 23.8376C54.4789 23.7763 54.4643 23.7308 54.4344 23.6996C54.4055 23.6673 54.3622 23.6518 54.3031 23.6518C54.1373 23.6518 53.9289 23.8133 53.6785 24.1348C53.4269 24.4564 53.2613 24.8017 53.1812 25.1691L52.9071 26.4504H52.001L52.829 22.4029C52.8459 22.3158 52.8582 22.2456 52.8647 22.19C52.8713 22.1347 52.8749 22.0832 52.8749 22.0355C52.8749 21.8842 52.7447 21.8017 52.4831 21.7883C52.4507 21.786 52.4261 21.784 52.4083 21.7818L52.4539 21.5224C52.4861 21.5224 52.534 21.5235 52.5978 21.5257C52.8214 21.5312 52.974 21.5346 53.0542 21.5346C53.1643 21.5346 53.2868 21.5312 53.4203 21.5235C53.5539 21.5169 53.7241 21.5045 53.9313 21.4879L53.9311 21.4878Z" fill="#4D4D4D"/>
<path id="Vector_14" d="M57.0368 22.3158H57.953L57.7245 23.458H58.534L58.4884 23.7584H57.6592L57.2705 25.653C57.2628 25.6945 57.2562 25.7336 57.2515 25.768C57.2468 25.8025 57.245 25.8316 57.245 25.8559C57.245 25.9425 57.2672 26.0105 57.3114 26.0582C57.3559 26.1064 57.4205 26.1295 57.5054 26.1295C57.6301 26.1295 57.7477 26.0748 57.8605 25.9672C57.972 25.8581 58.0876 25.6855 58.2075 25.4482L58.4005 25.562C58.2479 25.8946 58.0698 26.1383 57.8646 26.2921C57.6608 26.4469 57.4117 26.5238 57.119 26.5238C56.862 26.5238 56.6637 26.4659 56.5244 26.3513C56.3855 26.2355 56.3164 26.073 56.3164 25.8624C56.3164 25.8191 56.3197 25.768 56.3275 25.7099C56.3352 25.653 56.3465 25.5888 56.3621 25.5164L56.7305 23.7586H56.124L56.1761 23.4582H56.7986L57.0368 22.3159V22.3158Z" fill="#4D4D4D"/>
<path id="Vector_15" d="M59.8035 24.8606C59.7789 24.9786 59.7611 25.092 59.7488 25.2012C59.7365 25.3115 59.7309 25.4125 59.7309 25.5063C59.7309 25.7245 59.7733 25.886 59.8579 25.9917C59.9424 26.0975 60.075 26.1496 60.2532 26.1496C60.457 26.1496 60.6515 26.085 60.8364 25.9549C61.0213 25.8256 61.1772 25.6435 61.306 25.4084L61.5009 25.5385C61.3382 25.8569 61.1267 26.0997 60.8663 26.2667C60.6069 26.4335 60.3134 26.5171 59.9849 26.5171C59.5975 26.5171 59.29 26.4003 59.0631 26.1675C58.836 25.9347 58.7227 25.6196 58.7227 25.2226C58.7227 24.6504 58.9273 24.1615 59.3357 23.7575C59.7444 23.3532 60.2508 23.1508 60.8532 23.1508C61.1612 23.1508 61.4017 23.211 61.5722 23.3315C61.7423 23.4526 61.8283 23.6187 61.8283 23.8309C61.8283 24.1527 61.6523 24.4043 61.3017 24.5869C60.9499 24.7694 60.4621 24.8607 59.8389 24.8607H59.8034L59.8035 24.8606ZM59.8512 24.5868C60.2274 24.578 60.5115 24.5075 60.7018 24.3762C60.892 24.2439 60.9868 24.0512 60.9868 23.7987C60.9868 23.6907 60.9578 23.6047 60.8997 23.5436C60.8434 23.4824 60.7631 23.4511 60.6604 23.4511C60.4693 23.4511 60.3079 23.5436 60.1762 23.7285C60.0449 23.9133 59.9371 24.1993 59.8512 24.5868Z" fill="#4D4D4D"/>
<path id="Vector_16" d="M66.1569 21.4878L65.5824 24.194C65.8173 23.8435 66.0457 23.5892 66.2649 23.4325C66.4852 23.2754 66.7213 23.1976 66.9743 23.1976C67.1814 23.1976 67.3446 23.2552 67.465 23.3702C67.5861 23.486 67.6465 23.6416 67.6465 23.8376C67.6465 23.9134 67.6375 24.0001 67.6186 24.0969C67.6009 24.194 67.5731 24.3029 67.5349 24.4254L67.161 25.591C67.1366 25.6688 67.1188 25.7336 67.1089 25.7846C67.0975 25.8357 67.092 25.8779 67.092 25.9106C67.092 25.9692 67.1089 26.0148 67.1408 26.0475C67.1733 26.0798 67.218 26.0962 67.2745 26.0962C67.3616 26.0962 67.4549 26.0452 67.5538 25.9425C67.6518 25.8404 67.7508 25.6931 67.8487 25.5017L68.0403 25.603C67.8889 25.9194 67.7188 26.1485 67.5317 26.2934C67.3444 26.4382 67.1241 26.5106 66.8714 26.5106C66.6434 26.5106 66.463 26.4559 66.333 26.3468C66.2025 26.2387 66.1368 26.0908 66.1368 25.9039C66.1368 25.856 66.1426 25.8001 66.1546 25.7366C66.1669 25.6743 66.1848 25.6044 66.2093 25.5284L66.61 24.2783C66.64 24.1847 66.6634 24.1003 66.6803 24.0257C66.6969 23.9503 66.7048 23.8877 66.7048 23.8376C66.7048 23.7763 66.69 23.7308 66.6601 23.6996C66.6311 23.6673 66.5878 23.6518 66.529 23.6518C66.3629 23.6518 66.1546 23.8133 65.9042 24.1348C65.6526 24.4564 65.4869 24.8017 65.4068 25.1691L65.1329 26.4504H64.2266L65.0546 22.4029C65.0713 22.3158 65.0835 22.2456 65.0903 22.19C65.0967 22.1347 65.1 22.0832 65.1 22.0355C65.1 21.8842 64.9701 21.8017 64.7084 21.7883C64.6763 21.786 64.6514 21.784 64.6336 21.7818L64.6793 21.5224C64.712 21.5224 64.7597 21.5235 64.8231 21.5257C65.0467 21.5312 65.1992 21.5346 65.2795 21.5346C65.3898 21.5346 65.5121 21.5312 65.6456 21.5235C65.7793 21.5169 65.9497 21.5045 66.1566 21.4879L66.1569 21.4878Z" fill="#4D4D4D"/>
<path id="Vector_17" d="M70.7597 23.9655C70.7461 23.7966 70.7038 23.6664 70.6304 23.575C70.5584 23.4837 70.46 23.4382 70.3389 23.4382C70.2119 23.4382 70.0906 23.4927 69.975 23.603C69.8582 23.7118 69.7501 23.8733 69.6499 24.086C69.5431 24.3096 69.4581 24.5454 69.3969 24.7929C69.3348 25.0412 69.3036 25.2614 69.3036 25.4552C69.3036 25.631 69.3293 25.7603 69.3815 25.8436C69.4337 25.9273 69.5172 25.9692 69.6297 25.9692C69.7744 25.9692 69.9458 25.8536 70.1461 25.6219C70.3466 25.3917 70.4747 25.1544 70.5312 24.9139L70.7597 23.9654V23.9655ZM70.8933 23.5513L71.0203 23.1572H71.8819L71.3064 25.5329C71.2862 25.6041 71.273 25.6641 71.2649 25.7121C71.2572 25.76 71.2541 25.8024 71.2541 25.8366C71.2541 25.9002 71.2696 25.9501 71.3018 25.9868C71.3331 26.0236 71.3754 26.0426 71.4275 26.0426C71.5098 26.0426 71.5936 25.997 71.6791 25.9068C71.764 25.8165 71.8473 25.683 71.9274 25.5061L72.1367 25.6005C71.9997 25.9036 71.8353 26.1316 71.6422 26.2831C71.4498 26.4344 71.2294 26.5104 70.9822 26.5104C70.7842 26.5104 70.6339 26.4635 70.5324 26.3709C70.4303 26.2787 70.3788 26.1418 70.3788 25.9603C70.3788 25.9192 70.3822 25.8677 70.3889 25.8065C70.3957 25.7463 70.4054 25.6777 70.4212 25.6005C70.2433 25.8936 70.0403 26.1174 69.8136 26.274C69.5864 26.4313 69.3513 26.5103 69.1108 26.5103C68.8604 26.5103 68.6647 26.4234 68.5224 26.2498C68.3798 26.0747 68.3086 25.8331 68.3086 25.5215C68.3086 25.248 68.3584 24.9707 68.4589 24.6889C68.5578 24.4075 68.6978 24.1512 68.8785 23.921C69.0652 23.677 69.2723 23.4891 69.4996 23.3566C69.7267 23.2241 69.9527 23.1572 70.1789 23.1572C70.3579 23.1572 70.5046 23.1897 70.6229 23.2552C70.7397 23.3199 70.8299 23.4189 70.8934 23.5513H70.8933Z" fill="#4D4D4D"/>
<path id="Vector_18" d="M73.8462 21.6415C73.9876 21.6415 74.1057 21.6838 74.1993 21.7681C74.2925 21.8529 74.3393 21.9609 74.3393 22.091C74.3393 22.2558 74.2758 22.3995 74.1479 22.5206C74.0213 22.6423 73.8729 22.7033 73.7061 22.7033C73.5968 22.7033 73.5014 22.6575 73.42 22.5651C73.3386 22.4731 73.2972 22.3661 73.2972 22.2435C73.2972 22.0676 73.3487 21.924 73.4522 21.8106C73.5558 21.6979 73.6871 21.6414 73.846 21.6414L73.8462 21.6415ZM74.1203 24.2317L73.7037 25.6298C73.6915 25.6734 73.6816 25.7147 73.6749 25.7545C73.6681 25.796 73.6648 25.8336 73.6648 25.8714C73.6648 25.9474 73.6795 26.0039 73.7094 26.0406C73.7381 26.0774 73.7839 26.0964 73.845 26.0964C73.932 26.0964 74.0244 26.0466 74.1201 25.9463C74.2157 25.8462 74.3138 25.698 74.4141 25.5019L74.6133 25.6032C74.4586 25.9161 74.2848 26.1464 74.0925 26.2922C73.8995 26.4384 73.6748 26.5107 73.4189 26.5107C73.2029 26.5107 73.03 26.455 72.9022 26.3447C72.7741 26.2334 72.7094 26.0842 72.7094 25.8972C72.7094 25.8474 72.7153 25.7904 72.7263 25.7269C72.7363 25.6645 72.753 25.5981 72.7755 25.5286L73.2152 24.0395C73.2229 24.0093 73.2307 23.976 73.236 23.9415C73.2419 23.9069 73.2439 23.8703 73.2439 23.8298C73.2439 23.7545 73.2296 23.6974 73.2006 23.6606C73.1707 23.6238 73.1269 23.6048 73.0681 23.6048C72.9903 23.6048 72.9036 23.6518 72.8074 23.7443C72.712 23.8365 72.6128 23.9714 72.5082 24.1504L72.3154 24.0328C72.4557 23.7676 72.6305 23.5617 72.8408 23.4158C73.0526 23.2703 73.2752 23.1978 73.5101 23.1978C73.726 23.1978 73.894 23.2489 74.0162 23.3525C74.1379 23.4559 74.1991 23.5984 74.1991 23.7788C74.1991 23.8356 74.1921 23.9011 74.1789 23.9781C74.1666 24.0536 74.1468 24.1384 74.1201 24.2319L74.1203 24.2317Z" fill="#4D4D4D"/>
<path id="Vector_19" d="M76.4139 24.3007C76.6643 23.9087 76.9049 23.6271 77.1342 23.4556C77.3633 23.283 77.6094 23.1975 77.87 23.1975C78.0771 23.1975 78.2416 23.2551 78.3662 23.3719C78.4899 23.489 78.5525 23.6437 78.5525 23.8373C78.5525 23.9085 78.5432 23.9909 78.5245 24.0834C78.5068 24.1759 78.4753 24.2905 78.432 24.4253L78.0659 25.5876L78.0604 25.6096C78.0148 25.7601 77.9913 25.86 77.9913 25.9104C77.9913 25.9672 78.009 26.0118 78.0437 26.0462C78.0783 26.0797 78.1237 26.0961 78.1804 26.0961C78.265 26.0961 78.3564 26.0462 78.4545 25.9449C78.5525 25.8434 78.6504 25.6956 78.7485 25.5016L78.9463 25.6029C78.7883 25.9224 78.6169 26.1541 78.4334 26.2966C78.2494 26.4391 78.0315 26.5104 77.7798 26.5104C77.5514 26.5104 77.3712 26.4557 77.2398 26.3466C77.1087 26.2386 77.0429 26.0906 77.0429 25.9037C77.0429 25.849 77.0484 25.7901 77.0605 25.7276C77.0731 25.6641 77.0898 25.5977 77.1117 25.5285L77.5127 24.2783C77.5494 24.165 77.5751 24.0749 77.5894 24.0077C77.6041 23.9401 77.6107 23.8832 77.6107 23.8376C77.6107 23.7763 77.5962 23.7308 77.5681 23.6996C77.5396 23.6673 77.4961 23.6518 77.4369 23.6518C77.2702 23.6518 77.0605 23.811 76.8115 24.1307C76.5622 24.4487 76.3961 24.7949 76.3141 25.1693L76.028 26.4505H75.0863L75.6149 24.0792C75.625 24.0293 75.6336 23.9825 75.6395 23.938C75.6448 23.8935 75.6471 23.8525 75.6471 23.8134C75.6471 23.7434 75.6328 23.69 75.605 23.6507C75.5758 23.612 75.5369 23.5921 75.4869 23.5921C75.3955 23.5921 75.2987 23.6366 75.1963 23.7268C75.094 23.8168 74.9862 23.9537 74.8734 24.1386L74.6846 24.0103C74.8449 23.7346 75.0254 23.5296 75.2232 23.3971C75.4224 23.2645 75.6472 23.1979 75.9002 23.1979C76.0994 23.1979 76.2516 23.2425 76.3578 23.3304C76.4636 23.4182 76.5157 23.5475 76.5157 23.7168C76.5157 23.7689 76.5079 23.8379 76.4936 23.9248C76.4778 24.0103 76.4522 24.1363 76.4143 24.3011L76.4139 24.3007Z" fill="#4D4D4D"/>
<path id="Vector_20" d="M82.2104 22.3158H83.1267L82.8982 23.458H83.7077L83.6621 23.7584H82.8328L82.4442 25.653C82.4363 25.6945 82.4299 25.7336 82.4252 25.768C82.4205 25.8025 82.4188 25.8316 82.4188 25.8559C82.4188 25.9425 82.4408 26.0105 82.4852 26.0582C82.5297 26.1064 82.5942 26.1295 82.6792 26.1295C82.8038 26.1295 82.9216 26.0748 83.0343 25.9672C83.1457 25.8581 83.2613 25.6855 83.3813 25.4482L83.5743 25.562C83.4217 25.8946 83.2437 26.1383 83.0384 26.2921C82.8347 26.4469 82.5855 26.5238 82.2929 26.5238C82.0358 26.5238 81.8375 26.4659 81.6982 26.3513C81.5593 26.2355 81.4902 26.073 81.4902 25.8624C81.4902 25.8191 81.4935 25.768 81.5013 25.7099C81.509 25.653 81.5203 25.5888 81.5358 25.5164L81.9042 23.7586H81.2979L81.35 23.4582H81.9724L82.2105 22.3159L82.2104 22.3158Z" fill="#4D4D4D"/>
<path id="Vector_21" d="M85.8526 23.1572C86.2879 23.1572 86.6344 23.2867 86.8903 23.5436C87.1474 23.8019 87.2753 24.146 87.2753 24.5767C87.2753 25.1088 87.0861 25.5643 86.7066 25.9425C86.3269 26.3214 85.8662 26.5106 85.3251 26.5106C84.8989 26.5106 84.5547 26.3801 84.294 26.1205C84.0325 25.8601 83.9023 25.5187 83.9023 25.0945C83.9023 24.5767 84.0948 24.1246 84.4811 23.7385C84.8674 23.3514 85.3249 23.1574 85.8524 23.1574L85.8526 23.1572ZM86.3068 24.067C86.3068 23.8587 86.2713 23.7008 86.2013 23.5928C86.13 23.4848 86.0255 23.4315 85.8861 23.4315C85.7496 23.4315 85.6236 23.4839 85.509 23.5883C85.3952 23.6919 85.2931 23.85 85.204 24.0602C85.1014 24.2975 85.02 24.5544 84.9613 24.8317C84.901 25.109 84.8711 25.3639 84.8711 25.5965C84.8711 25.7968 84.9109 25.9516 84.9913 26.0607C85.0722 26.1687 85.185 26.2234 85.3307 26.2234C85.4554 26.2234 85.5732 26.1698 85.6848 26.0619C85.7971 25.9539 85.8985 25.7989 85.9873 25.5965C86.0832 25.375 86.1602 25.1236 86.219 24.8405C86.278 24.5581 86.3068 24.2999 86.3068 24.0672V24.067Z" fill="#4D4D4D"/>
<path id="Vector_22" d="M89.6136 21.4878L89.0391 24.194C89.2743 23.8435 89.5022 23.5892 89.7218 23.4325C89.9419 23.2754 90.178 23.1976 90.431 23.1976C90.6381 23.1976 90.8014 23.2552 90.9218 23.3702C91.0429 23.486 91.1032 23.6416 91.1032 23.8376C91.1032 23.9134 91.0944 24.0001 91.0754 24.0969C91.0576 24.194 91.0298 24.3029 90.9917 24.4254L90.6179 25.591C90.5933 25.6688 90.5755 25.7336 90.5655 25.7846C90.5542 25.8357 90.5486 25.8779 90.5486 25.9106C90.5486 25.9692 90.5655 26.0148 90.5975 26.0475C90.6299 26.0798 90.6746 26.0962 90.7311 26.0962C90.8181 26.0962 90.9114 26.0452 91.0106 25.9425C91.1085 25.8404 91.2077 25.6931 91.3057 25.5017L91.4971 25.603C91.3458 25.9194 91.1755 26.1485 90.9882 26.2934C90.8011 26.4382 90.5808 26.5106 90.3282 26.5106C90.1001 26.5106 89.9198 26.4559 89.7895 26.3468C89.6593 26.2387 89.5936 26.0908 89.5936 25.9039C89.5936 25.856 89.5993 25.8001 89.6113 25.7366C89.6239 25.6743 89.6416 25.6044 89.6659 25.5284L90.0665 24.2783C90.0966 24.1847 90.12 24.1003 90.137 24.0257C90.1537 23.9503 90.1615 23.8877 90.1615 23.8376C90.1615 23.7763 90.1469 23.7308 90.117 23.6996C90.0878 23.6673 90.0446 23.6518 89.9858 23.6518C89.8198 23.6518 89.6115 23.8133 89.3611 24.1348C89.1095 24.4564 88.9439 24.8017 88.8637 25.1691L88.5896 26.4504H87.6836L88.5116 22.4029C88.5285 22.3158 88.5408 22.2456 88.5473 22.19C88.5537 22.1347 88.5575 22.0832 88.5575 22.0355C88.5575 21.8842 88.4273 21.8017 88.1657 21.7883C88.1333 21.786 88.1087 21.784 88.0909 21.7818L88.1367 21.5224C88.1689 21.5224 88.2167 21.5235 88.2802 21.5257C88.504 21.5312 88.6566 21.5346 88.7366 21.5346C88.847 21.5346 88.9694 21.5312 89.1028 21.5235C89.2364 21.5169 89.4068 21.5045 89.6138 21.4879L89.6136 21.4878Z" fill="#4D4D4D"/>
<path id="Vector_23" d="M95.2796 21.6415C95.421 21.6415 95.5389 21.6838 95.6327 21.7681C95.726 21.8529 95.7728 21.9609 95.7728 22.091C95.7728 22.2558 95.7092 22.3995 95.581 22.5206C95.4544 22.6423 95.3062 22.7033 95.1393 22.7033C95.0304 22.7033 94.9347 22.6575 94.8534 22.5651C94.772 22.4731 94.7306 22.3661 94.7306 22.2435C94.7306 22.0676 94.782 21.924 94.8855 21.8106C94.9888 21.6979 95.1203 21.6414 95.2794 21.6414L95.2796 21.6415ZM95.6316 24.2338L95.1781 26.3178C95.1082 26.6263 95.0356 26.8602 94.9591 27.018C94.8833 27.1771 94.7821 27.3219 94.6565 27.4523C94.4904 27.6258 94.3022 27.7604 94.0921 27.8561C93.8804 27.9521 93.6712 28.0001 93.4617 28.0001C93.216 28.0001 93.0144 27.9354 92.8564 27.8073C92.6993 27.6791 92.6201 27.5165 92.6201 27.3187C92.6201 27.2048 92.6592 27.1081 92.737 27.0267C92.816 26.9456 92.9115 26.9045 93.0276 26.9045C93.1513 26.9045 93.2534 26.9533 93.3335 27.0524C93.4137 27.1514 93.4539 27.2784 93.4539 27.4322C93.4539 27.4564 93.4494 27.5056 93.4384 27.5788C93.4339 27.6135 93.4307 27.6434 93.4286 27.6669C93.4539 27.6867 93.4784 27.7004 93.5009 27.7081C93.5217 27.7157 93.5454 27.7192 93.5685 27.7192C93.7947 27.7192 94.0048 27.2906 94.1987 26.4345L94.2089 26.3922L94.7575 23.9601C94.7622 23.9376 94.7656 23.9155 94.7674 23.8931C94.7697 23.87 94.7709 23.8475 94.7709 23.8264C94.7709 23.7454 94.7554 23.6849 94.7229 23.6449C94.692 23.6045 94.644 23.5848 94.5782 23.5848C94.4891 23.5848 94.3935 23.6348 94.2921 23.7361C94.1911 23.8373 94.0939 23.9789 94.0029 24.1611L93.807 24.041C93.9503 23.7593 94.122 23.5486 94.3224 23.4085C94.5228 23.2672 94.7496 23.1972 95.0047 23.1972C95.2238 23.1972 95.3943 23.2505 95.5167 23.3576C95.638 23.4644 95.6992 23.6135 95.6992 23.8049C95.6992 23.8886 95.679 24.0175 95.6403 24.1945C95.6356 24.2135 95.6333 24.2272 95.6315 24.2334L95.6316 24.2338Z" fill="#4D4D4D"/>
<path id="Vector_24" d="M98.6448 23.9655C98.6316 23.7966 98.5891 23.6664 98.5158 23.575C98.4435 23.4837 98.3454 23.4382 98.224 23.4382C98.0972 23.4382 97.9758 23.4927 97.8602 23.603C97.7434 23.7118 97.6352 23.8733 97.5348 24.086C97.428 24.3096 97.3433 24.5454 97.2821 24.7929C97.22 25.0412 97.1888 25.2614 97.1888 25.4552C97.1888 25.631 97.2145 25.7603 97.2666 25.8436C97.319 25.9273 97.4028 25.9692 97.5149 25.9692C97.6595 25.9692 97.8311 25.8536 98.0315 25.6219C98.2316 25.3917 98.3598 25.1544 98.4166 24.9139L98.6448 23.9654V23.9655ZM98.7784 23.5513L98.9051 23.1572H99.767L99.1912 25.5329C99.1713 25.6041 99.1579 25.6641 99.1501 25.7121C99.1424 25.76 99.1391 25.8024 99.1391 25.8366C99.1391 25.9002 99.1544 25.9501 99.1869 25.9868C99.2179 26.0236 99.2603 26.0426 99.3126 26.0426C99.3949 26.0426 99.4786 25.997 99.5642 25.9068C99.6489 25.8165 99.7325 25.683 99.8126 25.5061L100.022 25.6005C99.8849 25.9036 99.72 26.1316 99.5272 26.2831C99.3347 26.4344 99.1146 26.5104 98.8672 26.5104C98.6694 26.5104 98.5189 26.4635 98.4177 26.3709C98.3151 26.2787 98.2639 26.1418 98.2639 25.9603C98.2639 25.9192 98.2671 25.8677 98.2741 25.8065C98.2806 25.7463 98.2907 25.6777 98.3061 25.6005C98.1281 25.8936 97.9253 26.1174 97.6986 26.274C97.471 26.4313 97.2364 26.5103 96.9959 26.5103C96.7455 26.5103 96.5495 26.4234 96.407 26.2498C96.2645 26.0747 96.1934 25.8331 96.1934 25.5215C96.1934 25.248 96.2432 24.9707 96.3433 24.6889C96.4424 24.4075 96.5826 24.1512 96.763 23.921C96.95 23.677 97.1571 23.4891 97.3844 23.3566C97.6115 23.2241 97.8373 23.1572 98.0632 23.1572C98.2423 23.1572 98.3896 23.1897 98.5076 23.2552C98.6243 23.3199 98.7144 23.4189 98.7779 23.5513H98.7784Z" fill="#4D4D4D"/>
<path id="Vector_25" d="M102.263 21.4878L101.689 24.194C101.924 23.8435 102.152 23.5892 102.371 23.4325C102.592 23.2754 102.828 23.1976 103.08 23.1976C103.288 23.1976 103.451 23.2552 103.571 23.3702C103.692 23.486 103.753 23.6416 103.753 23.8376C103.753 23.9134 103.744 24.0001 103.725 24.0969C103.707 24.194 103.679 24.3029 103.642 24.4254L103.268 25.591C103.243 25.6688 103.225 25.7336 103.215 25.7846C103.204 25.8357 103.198 25.8779 103.198 25.9106C103.198 25.9692 103.215 26.0148 103.247 26.0475C103.28 26.0798 103.324 26.0962 103.381 26.0962C103.468 26.0962 103.561 26.0452 103.66 25.9425C103.758 25.8404 103.857 25.6931 103.955 25.5017L104.147 25.603C103.995 25.9194 103.825 26.1485 103.638 26.2934C103.451 26.4382 103.231 26.5106 102.978 26.5106C102.75 26.5106 102.569 26.4559 102.439 26.3468C102.309 26.2387 102.243 26.0908 102.243 25.9039C102.243 25.856 102.249 25.8001 102.261 25.7366C102.274 25.6743 102.291 25.6044 102.316 25.5284L102.716 24.2783C102.747 24.1847 102.77 24.1003 102.787 24.0257C102.803 23.9503 102.811 23.8877 102.811 23.8376C102.811 23.7763 102.797 23.7308 102.767 23.6996C102.738 23.6673 102.694 23.6518 102.635 23.6518C102.47 23.6518 102.261 23.8133 102.011 24.1348C101.759 24.4564 101.593 24.8017 101.513 25.1691L101.239 26.4504H100.333L101.162 22.4029C101.178 22.3158 101.19 22.2456 101.197 22.19C101.204 22.1347 101.207 22.0832 101.207 22.0355C101.207 21.8842 101.077 21.8017 100.815 21.7883C100.783 21.786 100.758 21.784 100.741 21.7818L100.786 21.5224C100.818 21.5224 100.867 21.5235 100.93 21.5257C101.154 21.5312 101.306 21.5346 101.387 21.5346C101.497 21.5346 101.619 21.5312 101.753 21.5235C101.886 21.5169 102.056 21.5045 102.264 21.4879L102.263 21.4878Z" fill="#4D4D4D"/>
<path id="Vector_26" d="M106.866 23.9655C106.853 23.7966 106.811 23.6664 106.737 23.575C106.665 23.4837 106.567 23.4382 106.446 23.4382C106.319 23.4382 106.197 23.4927 106.082 23.603C105.965 23.7118 105.857 23.8733 105.757 24.086C105.65 24.3096 105.565 24.5454 105.504 24.7929C105.442 25.0412 105.41 25.2614 105.41 25.4552C105.41 25.631 105.436 25.7603 105.488 25.8436C105.541 25.9273 105.624 25.9692 105.737 25.9692C105.881 25.9692 106.053 25.8536 106.253 25.6219C106.454 25.3917 106.581 25.1544 106.638 24.9139L106.867 23.9654L106.866 23.9655ZM107 23.5513L107.127 23.1572H107.988L107.413 25.5329C107.393 25.6041 107.379 25.6641 107.372 25.7121C107.364 25.76 107.36 25.8024 107.36 25.8366C107.36 25.9002 107.376 25.9501 107.408 25.9868C107.44 26.0236 107.482 26.0426 107.534 26.0426C107.617 26.0426 107.7 25.997 107.786 25.9068C107.871 25.8165 107.954 25.683 108.034 25.5061L108.244 25.6005C108.106 25.9036 107.942 26.1316 107.749 26.2831C107.557 26.4344 107.336 26.5104 107.089 26.5104C106.891 26.5104 106.741 26.4635 106.639 26.3709C106.537 26.2787 106.486 26.1418 106.486 25.9603C106.486 25.9192 106.489 25.8677 106.496 25.8065C106.502 25.7463 106.512 25.6777 106.528 25.6005C106.35 25.8936 106.147 26.1174 105.92 26.274C105.693 26.4313 105.458 26.5103 105.218 26.5103C104.967 26.5103 104.772 26.4234 104.629 26.2498C104.487 26.0747 104.415 25.8331 104.415 25.5215C104.415 25.248 104.465 24.9707 104.566 24.6889C104.665 24.4075 104.805 24.1512 104.985 23.921C105.172 23.677 105.379 23.4891 105.606 23.3566C105.833 23.2241 106.06 23.1572 106.286 23.1572C106.465 23.1572 106.611 23.1897 106.729 23.2552C106.846 23.3199 106.937 23.4189 107 23.5513Z" fill="#4D4D4D"/>
<path id="Vector_27" d="M110.097 24.3007C110.347 23.9087 110.588 23.6271 110.817 23.4556C111.047 23.283 111.292 23.1975 111.553 23.1975C111.76 23.1975 111.925 23.2551 112.049 23.3719C112.173 23.489 112.235 23.6437 112.235 23.8373C112.235 23.9085 112.226 23.9909 112.207 24.0834C112.19 24.1759 112.158 24.2905 112.115 24.4253L111.749 25.5876L111.743 25.6096C111.697 25.7601 111.674 25.86 111.674 25.9104C111.674 25.9672 111.692 26.0118 111.727 26.0462C111.761 26.0797 111.807 26.0961 111.863 26.0961C111.948 26.0961 112.039 26.0462 112.137 25.9449C112.235 25.8434 112.333 25.6956 112.431 25.5016L112.629 25.6029C112.471 25.9224 112.3 26.1541 112.116 26.2966C111.932 26.4391 111.714 26.5104 111.462 26.5104C111.234 26.5104 111.054 26.4557 110.923 26.3466C110.791 26.2386 110.726 26.0906 110.726 25.9037C110.726 25.849 110.731 25.7901 110.743 25.7276C110.756 25.6641 110.772 25.5977 110.795 25.5285L111.195 24.2783C111.232 24.165 111.258 24.0749 111.272 24.0077C111.287 23.9401 111.293 23.8832 111.293 23.8376C111.293 23.7763 111.279 23.7308 111.251 23.6996C111.222 23.6673 111.179 23.6518 111.12 23.6518C110.953 23.6518 110.743 23.811 110.494 24.1307C110.245 24.4487 110.079 24.7949 109.997 25.1693L109.711 26.4505H108.769L109.298 24.0792C109.308 24.0293 109.317 23.9825 109.322 23.938C109.328 23.8935 109.33 23.8525 109.33 23.8134C109.33 23.7434 109.315 23.69 109.288 23.6507C109.259 23.612 109.22 23.5921 109.17 23.5921C109.079 23.5921 108.981 23.6366 108.879 23.7268C108.777 23.8168 108.668 23.9537 108.556 24.1386L108.367 24.0103C108.527 23.7346 108.708 23.5296 108.906 23.3971C109.105 23.2645 109.33 23.1979 109.583 23.1979C109.782 23.1979 109.935 23.2425 110.04 23.3304C110.146 23.4182 110.199 23.5475 110.199 23.7168C110.199 23.7689 110.19 23.8379 110.176 23.9248C110.161 24.0103 110.135 24.1363 110.097 24.3011L110.097 24.3007Z" fill="#4D4D4D"/>
<path id="Vector_28" d="M116.922 21.4878L116.348 24.194C116.583 23.8435 116.811 23.5892 117.03 23.4325C117.251 23.2754 117.487 23.1976 117.739 23.1976C117.947 23.1976 118.11 23.2552 118.23 23.3702C118.352 23.486 118.412 23.6416 118.412 23.8376C118.412 23.9134 118.403 24.0001 118.384 24.0969C118.366 24.194 118.338 24.3029 118.3 24.4254L117.926 25.591C117.902 25.6688 117.884 25.7336 117.874 25.7846C117.863 25.8357 117.857 25.8779 117.857 25.9106C117.857 25.9692 117.874 26.0148 117.906 26.0475C117.939 26.0798 117.983 26.0962 118.04 26.0962C118.127 26.0962 118.22 26.0452 118.319 25.9425C118.417 25.8404 118.516 25.6931 118.614 25.5017L118.806 25.603C118.655 25.9194 118.484 26.1485 118.297 26.2934C118.11 26.4382 117.89 26.5106 117.637 26.5106C117.409 26.5106 117.228 26.4559 117.098 26.3468C116.968 26.2387 116.902 26.0908 116.902 25.9039C116.902 25.856 116.908 25.8001 116.92 25.7366C116.932 25.6743 116.95 25.6044 116.975 25.5284L117.375 24.2783C117.405 24.1847 117.429 24.1003 117.446 24.0257C117.462 23.9503 117.47 23.8877 117.47 23.8376C117.47 23.7763 117.455 23.7308 117.425 23.6996C117.397 23.6673 117.353 23.6518 117.294 23.6518C117.128 23.6518 116.92 23.8133 116.67 24.1348C116.418 24.4564 116.252 24.8017 116.172 25.1691L115.898 26.4504H114.992L115.82 22.4029C115.837 22.3158 115.849 22.2456 115.856 22.19C115.863 22.1347 115.866 22.0832 115.866 22.0355C115.866 21.8842 115.736 21.8017 115.474 21.7883C115.442 21.786 115.417 21.784 115.399 21.7818L115.445 21.5224C115.477 21.5224 115.525 21.5235 115.589 21.5257C115.812 21.5312 115.965 21.5346 116.045 21.5346C116.155 21.5346 116.278 21.5312 116.411 21.5235C116.545 21.5169 116.715 21.5045 116.922 21.4879V21.4878Z" fill="#4D4D4D"/>
<path id="Vector_29" d="M121.526 23.9655C121.512 23.7966 121.47 23.6664 121.397 23.575C121.325 23.4837 121.226 23.4382 121.105 23.4382C120.978 23.4382 120.857 23.4927 120.741 23.603C120.624 23.7118 120.516 23.8733 120.416 24.086C120.309 24.3096 120.224 24.5454 120.163 24.7929C120.101 25.0412 120.07 25.2614 120.07 25.4552C120.07 25.631 120.095 25.7603 120.147 25.8436C120.2 25.9273 120.283 25.9692 120.396 25.9692C120.54 25.9692 120.712 25.8536 120.912 25.6219C121.113 25.3917 121.241 25.1544 121.298 24.9139L121.526 23.9654V23.9655ZM121.659 23.5513L121.786 23.1572H122.648L122.072 25.5329C122.052 25.6041 122.039 25.6641 122.031 25.7121C122.023 25.76 122.02 25.8024 122.02 25.8366C122.02 25.9002 122.035 25.9501 122.068 25.9868C122.099 26.0236 122.141 26.0426 122.193 26.0426C122.276 26.0426 122.359 25.997 122.445 25.9068C122.53 25.8165 122.613 25.683 122.693 25.5061L122.903 25.6005C122.766 25.9036 122.601 26.1316 122.408 26.2831C122.216 26.4344 121.995 26.5104 121.748 26.5104C121.55 26.5104 121.4 26.4635 121.299 26.3709C121.196 26.2787 121.145 26.1418 121.145 25.9603C121.145 25.9192 121.148 25.8677 121.155 25.8065C121.161 25.7463 121.172 25.6777 121.187 25.6005C121.009 25.8936 120.806 26.1174 120.579 26.274C120.352 26.4313 120.117 26.5103 119.877 26.5103C119.626 26.5103 119.431 26.4234 119.288 26.2498C119.145 26.0747 119.074 25.8331 119.074 25.5215C119.074 25.248 119.124 24.9707 119.224 24.6889C119.323 24.4075 119.463 24.1512 119.644 23.921C119.831 23.677 120.038 23.4891 120.265 23.3566C120.493 23.2241 120.718 23.1572 120.944 23.1572C121.124 23.1572 121.27 23.1897 121.388 23.2552C121.505 23.3199 121.595 23.4189 121.659 23.5513H121.659Z" fill="#4D4D4D"/>
<path id="Vector_30" d="M124.612 21.6415C124.753 21.6415 124.871 21.6838 124.965 21.7681C125.058 21.8529 125.105 21.9609 125.105 22.091C125.105 22.2558 125.041 22.3995 124.914 22.5206C124.787 22.6423 124.638 22.7033 124.471 22.7033C124.362 22.7033 124.267 22.6575 124.185 22.5651C124.104 22.4731 124.063 22.3661 124.063 22.2435C124.063 22.0676 124.114 21.924 124.218 21.8106C124.321 21.6979 124.453 21.6414 124.612 21.6414V21.6415ZM124.886 24.2317L124.469 25.6298C124.457 25.6734 124.447 25.7147 124.441 25.7545C124.434 25.796 124.43 25.8336 124.43 25.8714C124.43 25.9474 124.445 26.0039 124.475 26.0406C124.504 26.0774 124.549 26.0964 124.611 26.0964C124.698 26.0964 124.79 26.0466 124.886 25.9463C124.981 25.8462 125.079 25.698 125.179 25.5019L125.379 25.6032C125.224 25.9161 125.05 26.1464 124.858 26.2922C124.665 26.4384 124.441 26.5107 124.184 26.5107C123.968 26.5107 123.796 26.455 123.668 26.3447C123.54 26.2334 123.475 26.0842 123.475 25.8972C123.475 25.8474 123.481 25.7904 123.492 25.7269C123.502 25.6645 123.519 25.5981 123.541 25.5286L123.981 24.0395C123.989 24.0093 123.996 23.976 124.002 23.9415C124.008 23.9069 124.01 23.8703 124.01 23.8298C124.01 23.7545 123.995 23.6974 123.966 23.6606C123.936 23.6238 123.893 23.6048 123.834 23.6048C123.756 23.6048 123.669 23.6518 123.573 23.7443C123.477 23.8365 123.378 23.9714 123.274 24.1504L123.081 24.0328C123.221 23.7676 123.396 23.5617 123.607 23.4158C123.818 23.2703 124.041 23.1978 124.276 23.1978C124.491 23.1978 124.66 23.2489 124.782 23.3525C124.904 23.4559 124.964 23.5984 124.964 23.7788C124.964 23.8356 124.958 23.9011 124.945 23.9781C124.932 24.0536 124.912 24.1384 124.886 24.2319L124.886 24.2317Z" fill="#4D4D4D"/>
<path id="Vector_31" d="M127.179 24.3007C127.43 23.9087 127.67 23.6271 127.899 23.4556C128.129 23.283 128.374 23.1975 128.635 23.1975C128.842 23.1975 129.007 23.2551 129.132 23.3719C129.255 23.489 129.318 23.6437 129.318 23.8373C129.318 23.9085 129.309 23.9909 129.29 24.0834C129.272 24.1759 129.241 24.2905 129.197 24.4253L128.831 25.5876L128.826 25.6096C128.78 25.7601 128.757 25.86 128.757 25.9104C128.757 25.9672 128.774 26.0118 128.809 26.0462C128.843 26.0797 128.889 26.0961 128.946 26.0961C129.03 26.0961 129.122 26.0462 129.22 25.9449C129.318 25.8434 129.416 25.6956 129.514 25.5016L129.712 25.6029C129.553 25.9224 129.382 26.1541 129.198 26.2966C129.015 26.4391 128.797 26.5104 128.545 26.5104C128.317 26.5104 128.137 26.4557 128.005 26.3466C127.874 26.2386 127.808 26.0906 127.808 25.9037C127.808 25.849 127.814 25.7901 127.826 25.7276C127.838 25.6641 127.855 25.5977 127.877 25.5285L128.278 24.2783C128.315 24.165 128.34 24.0749 128.355 24.0077C128.369 23.9401 128.376 23.8832 128.376 23.8376C128.376 23.7763 128.362 23.7308 128.334 23.6996C128.305 23.6673 128.261 23.6518 128.202 23.6518C128.035 23.6518 127.826 23.811 127.576 24.1307C127.327 24.4487 127.162 24.7949 127.079 25.1693L126.793 26.4505H125.851L126.38 24.0792C126.39 24.0293 126.399 23.9825 126.404 23.938C126.41 23.8935 126.412 23.8525 126.412 23.8134C126.412 23.7434 126.398 23.69 126.37 23.6507C126.341 23.612 126.302 23.5921 126.252 23.5921C126.16 23.5921 126.063 23.6366 125.961 23.7268C125.859 23.8168 125.751 23.9537 125.638 24.1386L125.449 24.0103C125.61 23.7346 125.79 23.5296 125.988 23.3971C126.187 23.2645 126.412 23.1979 126.665 23.1979C126.864 23.1979 127.017 23.2425 127.122 23.3304C127.228 23.4182 127.28 23.5475 127.28 23.7168C127.28 23.7689 127.272 23.8379 127.258 23.9248C127.243 24.0103 127.217 24.1363 127.179 24.3011L127.179 24.3007Z" fill="#4D4D4D"/>
</g>
</svg>
