<svg width="17" height="18" viewBox="0 0 17 18" fill="none" xmlns="http://www.w3.org/2000/svg">
<g id="elements">
<path id="Intersect" d="M3.08083 5.25L2.16672 5.8594C1.51144 6.29626 1.18379 6.51469 1.00623 6.84781C0.828671 7.18093 0.829986 7.57242 0.832617 8.35542C0.835784 9.29814 0.844549 10.2587 0.868809 11.2306C0.926367 13.5365 0.955146 14.6895 1.80295 15.5373C2.65075 16.3852 3.81929 16.4144 6.15638 16.4728C7.61032 16.5091 9.05136 16.5091 10.5053 16.4728C12.8424 16.4144 14.0109 16.3852 14.8587 15.5373C15.7065 14.6895 15.7353 13.5365 15.7929 11.2306C15.8171 10.2587 15.8259 9.29814 15.829 8.35542C15.8317 7.57242 15.833 7.18092 15.6554 6.84781C15.4779 6.51469 15.1502 6.29626 14.4949 5.8594L13.5808 5.25" stroke="#67779A" stroke-width="1.2" stroke-linejoin="round"/>
<path id="Vector 7163" d="M0.830078 7.5L6.01485 10.6109C7.14286 11.2877 7.70686 11.6261 8.33008 11.6261C8.95329 11.6261 9.5173 11.2877 10.6453 10.6109L15.8301 7.5" stroke="#67779A" stroke-width="1.2" stroke-linejoin="round"/>
<path id="Vector 7165" d="M3.08008 9V4.5C3.08008 3.08579 3.08008 2.37868 3.51942 1.93934C3.95876 1.5 4.66586 1.5 6.08008 1.5H10.5801C11.9943 1.5 12.7014 1.5 13.1407 1.93934C13.5801 2.37868 13.5801 3.08579 13.5801 4.5V9" stroke="#67779A" stroke-width="1.2"/>
<path id="Vector" d="M6.83008 7.5H9.83008M6.83008 4.5H9.83008" stroke="#67779A" stroke-width="1.2" stroke-linecap="round" stroke-linejoin="round"/>
</g>
</svg>
