<svg width="19" height="18" viewBox="0 0 19 18" fill="none" xmlns="http://www.w3.org/2000/svg">
<g id="mail-account-01">
<g id="elements">
<path id="Vector 7163" d="M1.83301 3.75L7.01778 6.69347C8.912 7.76885 9.75401 7.76885 11.6482 6.69347L16.833 3.75" stroke="#67779A" stroke-width="1.4" stroke-linejoin="round"/>
<path id="Vector" d="M16.83 7.8768C16.828 7.60176 16.8251 7.32763 16.8212 7.14488C16.7722 4.84504 16.7476 3.69512 15.8993 2.84329C15.051 1.99146 13.8703 1.96178 11.5089 1.90243C10.0535 1.86586 8.61249 1.86585 7.15712 1.90243C4.79575 1.96177 3.61507 1.99145 2.76672 2.84328C1.91838 3.6951 1.89386 4.84502 1.84483 7.14486C1.82907 7.88435 1.82907 8.61947 1.84483 9.35896C1.89386 11.6588 1.91838 12.8087 2.76673 13.6605C3.61507 14.5124 4.79576 14.542 7.15713 14.6014C7.61311 14.6129 8.20476 14.6207 8.58301 14.625" stroke="#67779A" stroke-width="1.4" stroke-linecap="round" stroke-linejoin="round"/>
<g id="Vector_2">
<path d="M12.0216 13.9861C11.55 14.2626 10.3136 14.827 11.0667 15.5332C11.4345 15.8783 11.8443 16.125 12.3594 16.125H15.2988C15.8139 16.125 16.2237 15.8783 16.5915 15.5332C17.3446 14.827 16.1082 14.2626 15.6366 13.9861C14.5307 13.338 13.1275 13.338 12.0216 13.9861Z" stroke="#67779A" stroke-width="1.4"/>
<path d="M15.3291 10.5C15.3291 11.3284 14.6575 12 13.8291 12C13.0007 12 12.3291 11.3284 12.3291 10.5C12.3291 9.67157 13.0007 9 13.8291 9C14.6575 9 15.3291 9.67157 15.3291 10.5Z" stroke="#67779A" stroke-width="1.4"/>
</g>
</g>
</g>
</svg>
