<svg width="19" height="18" viewBox="0 0 19 18" fill="none" xmlns="http://www.w3.org/2000/svg">
<g id="mail-send-01">
<g id="elements">
<path id="Vector" d="M17.167 9.37505C17.167 9.00651 17.1631 8.26292 17.1552 7.8933C17.1061 5.59415 17.0816 4.44457 16.2333 3.593C15.3849 2.74142 14.2042 2.71176 11.8429 2.65243C10.3875 2.61586 8.94647 2.61586 7.49111 2.65242C5.12974 2.71175 3.94905 2.74141 3.10071 3.59299C2.25236 4.44456 2.22784 5.59413 2.17882 7.89328C2.16305 8.63255 2.16305 9.36745 2.17882 10.1067C2.22785 12.4059 2.25236 13.5554 3.10071 14.407C3.94906 15.2586 5.12974 15.2883 7.49111 15.3476C8.09318 15.3627 8.6928 15.3716 9.29199 15.3742" stroke="#67779A" stroke-width="1.4" stroke-linecap="round" stroke-linejoin="round"/>
<path id="Vector 7163" d="M2.16699 4.5L7.35176 7.44347C9.24599 8.51885 10.088 8.51885 11.9822 7.44347L17.167 4.5" stroke="#67779A" stroke-width="1.4" stroke-linejoin="round"/>
<path id="Vector_2" d="M17.167 13.125L11.167 13.125M17.167 13.125C17.167 12.5998 15.6713 11.6186 15.292 11.25M17.167 13.125C17.167 13.6502 15.6713 14.6314 15.292 15" stroke="#67779A" stroke-width="1.4" stroke-linecap="round" stroke-linejoin="round"/>
</g>
</g>
</svg>
