<svg width="17" height="14" viewBox="0 0 17 14" fill="none" xmlns="http://www.w3.org/2000/svg">
<g id="elements">
<path id="Vector 7163" d="M1.16602 2.5L6.35078 5.43773C8.26221 6.52076 9.06982 6.52076 10.9812 5.43773L16.166 2.5" stroke="#67779A" stroke-width="1.125" stroke-linejoin="round"/>
<path id="Vector" d="M1.17784 8.10672C1.22687 10.4059 1.25139 11.5554 2.09973 12.407C2.94808 13.2586 4.12877 13.2883 6.49014 13.3476C7.9455 13.3841 9.38654 13.3841 10.8419 13.3476C13.2033 13.2883 14.384 13.2586 15.2323 12.407C16.0806 11.5554 16.1052 10.4059 16.1542 8.10672C16.17 7.36745 16.17 6.63256 16.1542 5.8933C16.1052 3.59415 16.0806 2.44457 15.2323 1.593C14.384 0.741423 13.2033 0.711758 10.8419 0.652427C9.38654 0.61586 7.9455 0.615858 6.49013 0.652422C4.12876 0.711748 2.94808 0.741411 2.09973 1.59299C1.25138 2.44456 1.22687 3.59413 1.17784 5.89328C1.16207 6.63255 1.16207 7.36745 1.17784 8.10672Z" stroke="#67779A" stroke-width="1.125" stroke-linejoin="round"/>
</g>
</svg>
