<svg width="12" height="18" viewBox="0 0 12 18" fill="none" xmlns="http://www.w3.org/2000/svg">
<path d="M0.75 6.75C0.75 4.27513 0.75 3.03769 1.51884 2.26884C2.28769 1.5 3.52513 1.5 6 1.5C8.47487 1.5 9.71231 1.5 10.4812 2.26884C11.25 3.03769 11.25 4.27513 11.25 6.75V11.25C11.25 13.7249 11.25 14.9623 10.4812 15.7312C9.71231 16.5 8.47487 16.5 6 16.5C3.52513 16.5 2.28769 16.5 1.51884 15.7312C0.75 14.9623 0.75 13.7249 0.75 11.25V6.75Z" stroke="#67779A" stroke-width="1.125" stroke-linecap="round"/>
<path d="M5.25 14.25H6.75" stroke="#67779A" stroke-width="1.125" stroke-linecap="round" stroke-linejoin="round"/>
<path d="M3.75 1.5L3.81675 1.90051C3.96141 2.76847 4.03374 3.20245 4.33139 3.46653C4.64188 3.74201 5.08211 3.75 6 3.75C6.91789 3.75 7.35812 3.74201 7.66861 3.46653C7.96626 3.20245 8.03859 2.76847 8.18325 1.90051L8.25 1.5" stroke="#67779A" stroke-width="1.125" stroke-linejoin="round"/>
</svg>
