<svg width="16" height="16" viewBox="0 0 16 16" fill="none" xmlns="http://www.w3.org/2000/svg">
<g id="elements">
<path id="Vector" d="M4.62728 2C4.61315 1.72138 4.66389 1.50617 4.80185 1.325C5.1445 0.875 5.84252 0.875 7.23853 0.875H8.76147C10.1575 0.875 10.8555 0.875 11.1982 1.325C11.3361 1.50617 11.3868 1.72138 11.3727 2" stroke="#4B5F87" stroke-width="1.5" stroke-linecap="round" stroke-linejoin="round"/>
<path id="Vector_2" d="M2.75 5C2.77838 4.80528 2.84358 4.63695 2.95226 4.48573C3.3912 3.875 4.30107 3.875 6.12083 3.875H9.87917C11.6989 3.875 12.6088 3.875 13.0477 4.48573C13.1564 4.63695 13.2216 4.80528 13.25 5" stroke="#4B5F87" stroke-width="1.5" stroke-linecap="round" stroke-linejoin="round"/>
<path id="Vector_3" d="M1.86315 10.7846L2.40231 12.512C3.07395 14.6639 3.64797 15.125 5.9077 15.125H10.0923C12.352 15.125 12.9261 14.6639 13.5977 12.512L14.1369 10.7846C14.6946 8.99771 14.9735 8.10424 14.5326 7.48962C14.0917 6.875 13.172 6.875 11.3325 6.875H4.66747C2.828 6.875 1.90827 6.875 1.46741 7.48962C1.02655 8.10424 1.30542 8.9977 1.86315 10.7846Z" stroke="#4B5F87" stroke-width="1.5" stroke-linecap="round" stroke-linejoin="round"/>
</g>
</svg>
