<svg width="70" height="23" viewBox="0 0 70 23" fill="none" xmlns="http://www.w3.org/2000/svg">
<g id="Texto">
<path id="Google Play" d="M22.5555 13.0626C20.6396 13.0626 19.078 14.5049 19.078 16.4914C19.078 18.4657 20.6396 19.9201 22.5555 19.9201C24.4722 19.9201 26.0337 18.4657 26.0337 16.4914C26.0329 14.5049 24.4713 13.0626 22.5555 13.0626ZM22.5555 18.5705C21.5055 18.5705 20.6005 17.7135 20.6005 16.4922C20.6005 15.2579 21.5063 14.4138 22.5555 14.4138C23.6055 14.4138 24.5105 15.2579 24.5105 16.4922C24.5105 17.7127 23.6055 18.5705 22.5555 18.5705ZM14.9685 13.0626C13.0526 13.0626 11.4911 14.5049 11.4911 16.4914C11.4911 18.4657 13.0526 19.9201 14.9685 19.9201C16.8852 19.9201 18.4467 18.4657 18.4467 16.4914C18.4467 14.5049 16.8852 13.0626 14.9685 13.0626ZM14.9685 18.5705C13.9185 18.5705 13.0135 17.7135 13.0135 16.4922C13.0135 15.2579 13.9193 14.4138 14.9685 14.4138C16.0185 14.4138 16.9235 15.2579 16.9235 16.4922C16.9243 17.7127 16.0185 18.5705 14.9685 18.5705ZM5.94464 14.1155V15.5699H9.46198C9.3569 16.3882 9.08157 16.9855 8.66125 17.4007C8.14969 17.907 7.34897 18.4657 5.94464 18.4657C3.7795 18.4657 2.08681 16.738 2.08681 14.5952C2.08681 12.4523 3.7795 10.7246 5.94464 10.7246C7.11274 10.7246 7.9656 11.1793 8.59527 11.7638L9.63222 10.7375C8.75248 9.90635 7.58519 9.27026 5.94464 9.27026C2.97877 9.27026 0.485351 11.6598 0.485351 14.5952C0.485351 17.5305 2.97877 19.9201 5.94464 19.9201C7.54528 19.9201 8.7533 19.4001 9.69739 18.4262C10.6684 17.4652 10.9706 16.1141 10.9706 15.0233C10.9706 14.6863 10.9445 14.3743 10.8916 14.1147L5.94464 14.1155ZM42.8514 15.245C42.5631 14.4791 41.6833 13.0626 39.8856 13.0626C38.1008 13.0626 36.6175 14.4525 36.6175 16.4914C36.6175 18.4133 38.0878 19.9201 40.0558 19.9201C41.6434 19.9201 42.5623 18.9591 42.9435 18.4004L41.7623 17.6208C41.3689 18.1924 40.8305 18.5689 40.0558 18.5689C39.282 18.5689 38.7305 18.2182 38.3762 17.5297L43.0087 15.6336L42.8514 15.245ZM38.1269 16.3882C38.0878 15.0628 39.1638 14.388 39.9385 14.388C40.5421 14.388 41.0537 14.6871 41.2247 15.1152L38.1269 16.3882ZM34.3611 19.7129H35.8827V9.63466H34.3611V19.7129ZM31.8669 13.8293H31.8147C31.4734 13.4262 30.8169 13.0626 29.9909 13.0626C28.2583 13.0626 26.6707 14.5694 26.6707 16.5051C26.6707 18.427 28.2583 19.9209 29.9909 19.9209C30.8177 19.9209 31.4734 19.5573 31.8147 19.1421H31.8669V19.6355C31.8669 20.9472 31.1582 21.6486 30.017 21.6486C29.0851 21.6486 28.5076 20.9867 28.2713 20.428L26.946 20.9738C27.3264 21.8824 28.3365 22.9998 30.017 22.9998C31.8017 22.9998 33.3111 21.9606 33.3111 19.4275V13.2714H31.8677L31.8669 13.8293ZM30.1221 18.5705C29.0721 18.5705 28.1931 17.6998 28.1931 16.5051C28.1931 15.2966 29.0721 14.4138 30.1221 14.4138C31.1582 14.4138 31.972 15.2966 31.972 16.5051C31.972 17.6998 31.1582 18.5705 30.1221 18.5705ZM49.9822 9.63466H46.3403V19.7129H47.8594V15.8948H49.9814C51.666 15.8948 53.3228 14.6879 53.3228 12.7651C53.3228 10.8423 51.6668 9.63466 49.9822 9.63466ZM50.0213 14.492H47.8594V11.0374H50.0213C51.1577 11.0374 51.8028 11.9686 51.8028 12.7651C51.8028 13.5455 51.1577 14.492 50.0213 14.492ZM59.415 13.0449C58.3145 13.0449 57.1749 13.5246 56.7033 14.5879L58.0522 15.145C58.3406 14.5879 58.8782 14.4057 59.4411 14.4057C60.2271 14.4057 61.0262 14.8725 61.0393 15.7021V15.8061C60.764 15.6505 60.1742 15.4175 59.4541 15.4175C58.0001 15.4175 56.5192 16.2084 56.5192 17.6861C56.5192 19.0349 57.7117 19.9032 59.0476 19.9032C60.0691 19.9032 60.6328 19.4493 60.9863 18.9172H61.0385V19.6952H62.5063V15.8311C62.5071 14.0429 61.1566 13.0449 59.415 13.0449ZM59.2309 18.5681C58.734 18.5681 58.0392 18.3214 58.0392 17.7119C58.0392 16.934 58.9043 16.6357 59.6512 16.6357C60.3184 16.6357 60.6336 16.7784 61.0393 16.9727C60.9212 17.907 60.109 18.5681 59.2309 18.5681ZM67.8516 13.265L66.1092 17.6345H66.0571L64.2487 13.265H62.6114L65.3231 19.3719L63.7771 22.7692H65.3622L69.5418 13.265H67.8516ZM54.1618 19.7129H55.681V9.63466H54.1618V19.7129Z" fill="#000018"/>
<g id="Get it on">
<path d="M5.75515 3.67407C5.75515 4.33742 5.55332 4.86541 5.14884 5.25962C4.68983 5.72824 4.09084 5.96256 3.35512 5.96256C2.65033 5.96256 2.05052 5.72508 1.55815 5.25012C1.06496 4.77438 0.818359 4.18544 0.818359 3.48251C0.818359 2.77878 1.06496 2.18984 1.55815 1.71489C2.05052 1.23914 2.65033 1.00167 3.35512 1.00167C3.70507 1.00167 4.03956 1.06816 4.35696 1.20036C4.67518 1.33334 4.92991 1.50987 5.12035 1.73072L4.69145 2.14868C4.36836 1.77268 3.92318 1.58507 3.3543 1.58507C2.83995 1.58507 2.39559 1.7608 2.02041 2.11227C1.64523 2.46373 1.45804 2.92048 1.45804 3.48172C1.45804 4.04295 1.64523 4.4997 2.02041 4.85116C2.39559 5.20263 2.83995 5.37836 3.3543 5.37836C3.89958 5.37836 4.35452 5.20184 4.71831 4.848C4.95433 4.61765 5.09105 4.29705 5.12767 3.88622H3.3543V3.31548H5.72015C5.74457 3.43976 5.75515 3.55929 5.75515 3.67407Z" fill="#000018"/>
<path d="M9.50706 1.69039H7.28363V3.196H9.28895V3.76673H7.28363V5.27233H9.50706V5.85653H6.65616V1.10699H9.50706V1.69039Z" fill="#000018"/>
<path d="M12.1528 5.85653H11.5253V1.69039H10.1613V1.10699H13.5168V1.69039H12.1528V5.85653Z" fill="#000018"/>
<path d="M15.9445 5.85653V1.10699H16.5719V5.85653H15.9445Z" fill="#000018"/>
<path d="M19.3546 5.85653H18.7271V1.69039H17.3631V1.10699H20.7186V1.69039H19.3546V5.85653Z" fill="#000018"/>
<path d="M27.0705 5.24304C26.5903 5.72274 25.9938 5.96259 25.28 5.96259C24.5663 5.96259 23.9697 5.72274 23.4904 5.24304C23.0102 4.76334 22.7709 4.17598 22.7709 3.48175C22.7709 2.78753 23.0102 2.20017 23.4904 1.72047C23.9697 1.24076 24.5663 1.00012 25.28 1.00012C25.9897 1.00012 26.5855 1.24156 27.0672 1.72363C27.549 2.20571 27.7899 2.79149 27.7899 3.48175C27.7899 4.17598 27.5499 4.76334 27.0705 5.24304ZM23.9535 4.84487C24.3148 5.20108 24.7567 5.3784 25.28 5.3784C25.8033 5.3784 26.2461 5.20029 26.6066 4.84487C26.968 4.48865 27.1494 4.03428 27.1494 3.48175C27.1494 2.92922 26.968 2.47485 26.6066 2.11864C26.2461 1.76242 25.8033 1.58511 25.28 1.58511C24.7567 1.58511 24.3148 1.76321 23.9535 2.11864C23.5929 2.47485 23.4114 2.92922 23.4114 3.48175C23.4114 4.03428 23.5929 4.48865 23.9535 4.84487Z" fill="#000018"/>
<path d="M28.6705 5.85653V1.10699H29.4339L31.8071 4.80134H31.834L31.8071 3.88626V1.10699H32.4346V5.85653H31.7794L29.2964 1.98249H29.2695L29.2964 2.89757V5.85653H28.6705Z" fill="#000018"/>
<path d="M5.75515 3.67407C5.75515 4.33742 5.55332 4.86541 5.14884 5.25962C4.68983 5.72824 4.09084 5.96256 3.35512 5.96256C2.65033 5.96256 2.05052 5.72508 1.55815 5.25012C1.06496 4.77438 0.818359 4.18544 0.818359 3.48251C0.818359 2.77878 1.06496 2.18984 1.55815 1.71489C2.05052 1.23914 2.65033 1.00167 3.35512 1.00167C3.70507 1.00167 4.03956 1.06816 4.35696 1.20036C4.67518 1.33334 4.92991 1.50987 5.12035 1.73072L4.69145 2.14868C4.36836 1.77268 3.92318 1.58507 3.3543 1.58507C2.83995 1.58507 2.39559 1.7608 2.02041 2.11227C1.64523 2.46373 1.45804 2.92048 1.45804 3.48172C1.45804 4.04295 1.64523 4.4997 2.02041 4.85116C2.39559 5.20263 2.83995 5.37836 3.3543 5.37836C3.89958 5.37836 4.35452 5.20184 4.71831 4.848C4.95433 4.61765 5.09105 4.29705 5.12767 3.88622H3.3543V3.31548H5.72015C5.74457 3.43976 5.75515 3.55929 5.75515 3.67407Z" stroke="#000018" stroke-width="0.0334854" stroke-miterlimit="10"/>
<path d="M9.50706 1.69039H7.28363V3.196H9.28895V3.76673H7.28363V5.27233H9.50706V5.85653H6.65616V1.10699H9.50706V1.69039Z" stroke="#000018" stroke-width="0.0334854" stroke-miterlimit="10"/>
<path d="M12.1528 5.85653H11.5253V1.69039H10.1613V1.10699H13.5168V1.69039H12.1528V5.85653Z" stroke="#000018" stroke-width="0.0334854" stroke-miterlimit="10"/>
<path d="M15.9445 5.85653V1.10699H16.5719V5.85653H15.9445Z" stroke="#000018" stroke-width="0.0334854" stroke-miterlimit="10"/>
<path d="M19.3546 5.85653H18.7271V1.69039H17.3631V1.10699H20.7186V1.69039H19.3546V5.85653Z" stroke="#000018" stroke-width="0.0334854" stroke-miterlimit="10"/>
<path d="M27.0705 5.24304C26.5903 5.72274 25.9938 5.96259 25.28 5.96259C24.5663 5.96259 23.9697 5.72274 23.4904 5.24304C23.0102 4.76334 22.7709 4.17598 22.7709 3.48175C22.7709 2.78753 23.0102 2.20017 23.4904 1.72047C23.9697 1.24076 24.5663 1.00012 25.28 1.00012C25.9897 1.00012 26.5855 1.24156 27.0672 1.72363C27.549 2.20571 27.7899 2.79149 27.7899 3.48175C27.7899 4.17598 27.5499 4.76334 27.0705 5.24304ZM23.9535 4.84487C24.3148 5.20108 24.7567 5.3784 25.28 5.3784C25.8033 5.3784 26.2461 5.20029 26.6066 4.84487C26.968 4.48865 27.1494 4.03428 27.1494 3.48175C27.1494 2.92922 26.968 2.47485 26.6066 2.11864C26.2461 1.76242 25.8033 1.58511 25.28 1.58511C24.7567 1.58511 24.3148 1.76321 23.9535 2.11864C23.5929 2.47485 23.4114 2.92922 23.4114 3.48175C23.4114 4.03428 23.5929 4.48865 23.9535 4.84487Z" stroke="#000018" stroke-width="0.0334854" stroke-miterlimit="10"/>
<path d="M28.6705 5.85653V1.10699H29.4339L31.8071 4.80134H31.834L31.8071 3.88626V1.10699H32.4346V5.85653H31.7794L29.2964 1.98249H29.2695L29.2964 2.89757V5.85653H28.6705Z" stroke="#000018" stroke-width="0.0334854" stroke-miterlimit="10"/>
</g>
</g>
</svg>
