<svg width="18" height="18" viewBox="0 0 18 18" fill="none" xmlns="http://www.w3.org/2000/svg">
<g id="elements">
<path id="Rectangle 17665" d="M9.0013 4.4165L13.5846 6.9165L9.0013 9.4165L4.41797 6.9165L9.0013 4.4165Z" stroke="#0E285E" stroke-width="1.125" stroke-linecap="round" stroke-linejoin="round"/>
<path id="Vector 6468" d="M4 11.5V12.9994C4 13.8601 4.15349 14.1285 4.92131 14.5201L8.25464 16.2202C8.98615 16.5933 9.01385 16.5933 9.74536 16.2202L13.0787 14.5201C13.8465 14.1285 14 13.8601 14 12.9994V11.5" stroke="#0E285E" stroke-width="1.125" stroke-linecap="round" stroke-linejoin="round"/>
<path id="Vector" d="M10.9472 2.46699L9 4.22757L7.05282 2.46699C6.36632 1.84628 6.02308 1.53593 5.60319 1.50287C5.18331 1.46981 4.79852 1.72284 4.02894 2.2289L2.63509 3.14546C1.88766 3.63695 1.51395 3.8827 1.50038 4.24784C1.4868 4.61299 1.84118 4.88763 2.54992 5.43691L4.36234 6.84152L2.54992 8.24614C1.84118 8.79542 1.4868 9.07006 1.50038 9.4352C1.51395 9.80035 1.88766 10.0461 2.63509 10.5376L4.77477 11.9446C5.18522 12.2145 5.39044 12.3494 5.61438 12.3318C5.83831 12.3142 6.02137 12.1487 6.3875 11.8176L6.38751 11.8176L9 9.45548L10.9472 11.2161L10.9472 11.2161C11.6337 11.8368 11.9769 12.1471 12.3968 12.1802C12.8167 12.2132 13.2015 11.9602 13.9711 11.4541L15.3649 10.5376C16.1123 10.0461 16.4861 9.80035 16.4996 9.4352C16.5132 9.07006 16.1588 8.79542 15.4501 8.24614L13.6377 6.84152L15.4501 5.43691C16.1588 4.88763 16.5132 4.61299 16.4996 4.24784C16.4861 3.8827 16.1123 3.63695 15.3649 3.14546L13.9711 2.2289C13.2015 1.72284 12.8167 1.46981 12.3968 1.50287C11.9769 1.53593 11.6337 1.84628 10.9472 2.46699Z" stroke="#0E285E" stroke-width="1.125" stroke-linecap="round" stroke-linejoin="round"/>
</g>
</svg>
