<svg width="20" height="20" viewBox="0 0 20 20" fill="none" xmlns="http://www.w3.org/2000/svg">
<g id="fi_4904233">
<g id="Image">
<path id="Vector" d="M16.25 0.625H3.75C2.36929 0.625 1.25 1.74429 1.25 3.125V16.875C1.25 18.2557 2.36929 19.375 3.75 19.375H16.25C17.6307 19.375 18.75 18.2557 18.75 16.875V3.125C18.75 1.74429 17.6307 0.625 16.25 0.625Z" fill="#DDEBFD"/>
<path id="Vector_2" d="M14.6894 9.03628C14.571 8.92508 14.414 8.86433 14.2516 8.8669C14.0892 8.86947 13.9342 8.93515 13.8194 9.05003L11.1244 11.7457C11.0072 11.8629 10.9414 12.0218 10.9414 12.1875C10.9414 12.3533 11.0072 12.5122 11.1244 12.6294L17.5138 19.0207C17.8894 18.8021 18.2013 18.4891 18.4185 18.1127C18.6357 17.7363 18.7506 17.3096 18.7519 16.875V12.8544L14.6894 9.03628Z" fill="#4071F7"/>
<g id="Group">
<path id="Vector_3" d="M11.875 8.75C12.9105 8.75 13.75 7.91053 13.75 6.875C13.75 5.83947 12.9105 5 11.875 5C10.8395 5 10 5.83947 10 6.875C10 7.91053 10.8395 8.75 11.875 8.75Z" fill="#5392F9"/>
<path id="Vector_4" d="M8.56687 8.3081C8.44746 8.19518 8.28935 8.13226 8.125 8.13226C7.96065 8.13226 7.80254 8.19518 7.68313 8.3081L1.25 14.7412V16.875C1.25 17.538 1.51339 18.1739 1.98223 18.6427C2.45107 19.1116 3.08696 19.375 3.75 19.375H16.25C16.6846 19.3737 17.1113 19.2588 17.4877 19.0416C17.8641 18.8244 18.1771 18.5125 18.3956 18.1369L8.56687 8.3081Z" fill="#5392F9"/>
</g>
</g>
</g>
</svg>
