<svg width="16" height="16" viewBox="0 0 16 16" fill="none" xmlns="http://www.w3.org/2000/svg">
<g id="elements">
<path id="Rectangle 17706" d="M1.25 3.5C1.25 2.43934 1.25 1.90901 1.5795 1.5795C1.90901 1.25 2.43934 1.25 3.5 1.25C4.56066 1.25 5.09099 1.25 5.4205 1.5795C5.75 1.90901 5.75 2.43934 5.75 3.5C5.75 4.56066 5.75 5.09099 5.4205 5.4205C5.09099 5.75 4.56066 5.75 3.5 5.75C2.43934 5.75 1.90901 5.75 1.5795 5.4205C1.25 5.09099 1.25 4.56066 1.25 3.5Z" stroke="#67779A" stroke-width="1.125"/>
<path id="Rectangle 17708" d="M1.25 12.5C1.25 11.4393 1.25 10.909 1.5795 10.5795C1.90901 10.25 2.43934 10.25 3.5 10.25C4.56066 10.25 5.09099 10.25 5.4205 10.5795C5.75 10.909 5.75 11.4393 5.75 12.5C5.75 13.5607 5.75 14.091 5.4205 14.4205C5.09099 14.75 4.56066 14.75 3.5 14.75C2.43934 14.75 1.90901 14.75 1.5795 14.4205C1.25 14.091 1.25 13.5607 1.25 12.5Z" stroke="#67779A" stroke-width="1.125"/>
<path id="Vector 6601" d="M1.25 8L5.75 8" stroke="#67779A" stroke-width="1.125" stroke-linecap="round" stroke-linejoin="round"/>
<path id="Vector 6602" d="M8 1.25V5" stroke="#67779A" stroke-width="1.125" stroke-linecap="round" stroke-linejoin="round"/>
<path id="Rectangle 17707" d="M10.25 3.5C10.25 2.43934 10.25 1.90901 10.5795 1.5795C10.909 1.25 11.4393 1.25 12.5 1.25C13.5607 1.25 14.091 1.25 14.4205 1.5795C14.75 1.90901 14.75 2.43934 14.75 3.5C14.75 4.56066 14.75 5.09099 14.4205 5.4205C14.091 5.75 13.5607 5.75 12.5 5.75C11.4393 5.75 10.909 5.75 10.5795 5.4205C10.25 5.09099 10.25 4.56066 10.25 3.5Z" stroke="#67779A" stroke-width="1.125"/>
<path id="Vector" d="M14.75 8H10.25C9.18934 8 8.65901 8 8.3295 8.3295C8 8.65901 8 9.18934 8 10.25M8 12.3269V14.4038M10.25 10.25V11.375C10.25 12.4598 10.8377 12.5 11.75 12.5C12.1642 12.5 12.5 12.8358 12.5 13.25M11 14.75H10.25M12.5 10.25C13.5607 10.25 14.091 10.25 14.4205 10.58C14.75 10.91 14.75 11.4411 14.75 12.5033C14.75 13.5654 14.75 14.0965 14.4205 14.4265C14.18 14.6674 13.8325 14.7324 13.25 14.75" stroke="#67779A" stroke-width="1.125" stroke-linecap="round"/>
</g>
</svg>
