<svg width="16" height="18" viewBox="0 0 16 18" fill="none" xmlns="http://www.w3.org/2000/svg">
<path d="M1.625 7.5C1.625 4.67157 1.625 3.25736 2.5586 2.37868C3.49219 1.5 4.9948 1.5 8 1.5H8.57954C11.0254 1.5 12.2484 1.5 13.0977 2.09838C13.341 2.26982 13.5571 2.47314 13.7392 2.70217C14.375 3.5015 14.375 4.65252 14.375 6.95455V8.86364C14.375 11.086 14.375 12.1972 14.0233 13.0847C13.4579 14.5114 12.2621 15.6368 10.7462 16.169C9.80328 16.5 8.62264 16.5 6.26136 16.5C4.91206 16.5 4.23741 16.5 3.69858 16.3108C2.83234 16.0068 2.14906 15.3637 1.82597 14.5484C1.625 14.0413 1.625 13.4063 1.625 12.1364V7.5Z" stroke="#4B5F87" stroke-width="1.4" stroke-linejoin="round"/>
<path d="M14.375 9C14.375 10.3807 13.2557 11.5 11.875 11.5C11.3757 11.5 10.787 11.4125 10.3015 11.5426C9.87011 11.6582 9.53318 11.9951 9.41759 12.4265C9.2875 12.912 9.375 13.5007 9.375 14C9.375 15.3807 8.25571 16.5 6.875 16.5" stroke="#4B5F87" stroke-width="1.4" stroke-linecap="round" stroke-linejoin="round"/>
<path d="M5 5.25H10.25" stroke="#4B5F87" stroke-width="1.4" stroke-linecap="round" stroke-linejoin="round"/>
<path d="M5 8.25H7.25" stroke="#4B5F87" stroke-width="1.4" stroke-linecap="round" stroke-linejoin="round"/>
</svg>
