<svg width="18" height="18" viewBox="0 0 18 18" fill="none" xmlns="http://www.w3.org/2000/svg">
<g id="elements">
<circle id="Ellipse 1480" cx="1.125" cy="1.125" r="1.125" transform="matrix(1 0 0 -1 12 6.00018)" stroke="#E94B50" stroke-width="1.5" stroke-linecap="round" stroke-linejoin="round"/>
<path id="Vector" d="M2.08067 8.35795C1.32831 9.19822 1.31213 10.4659 2.00262 11.3578C3.37284 13.1274 4.87255 14.6272 6.64225 15.9974C7.53405 16.6879 8.80178 16.6717 9.64205 15.9193C11.9234 13.8766 14.0127 11.7419 16.0289 9.39596C16.2282 9.16403 16.3529 8.87976 16.3809 8.57522C16.5047 7.22849 16.7589 3.3485 15.7052 2.29481C14.6515 1.24111 10.7715 1.49532 9.42478 1.61907C9.12024 1.64706 8.83597 1.77175 8.60404 1.97109C6.25809 3.98734 4.12335 6.07658 2.08067 8.35795Z" stroke="#E94B50" stroke-width="1.5"/>
<path id="Line 20" d="M5.25 10.5002L7.5 12.7502" stroke="#E94B50" stroke-width="1.5" stroke-linecap="round" stroke-linejoin="round"/>
</g>
</svg>
