<svg width="18" height="18" viewBox="0 0 18 18" fill="none" xmlns="http://www.w3.org/2000/svg">
<g id="text-square">
<g id="elements">
<path id="Rectangle 2191" d="M1.875 9C1.875 5.64124 1.875 3.96186 2.91843 2.91843C3.96186 1.875 5.64124 1.875 9 1.875C12.3588 1.875 14.0381 1.875 15.0816 2.91843C16.125 3.96186 16.125 5.64124 16.125 9C16.125 12.3588 16.125 14.0381 15.0816 15.0816C14.0381 16.125 12.3588 16.125 9 16.125C5.64124 16.125 3.96186 16.125 2.91843 15.0816C1.875 14.0381 1.875 12.3588 1.875 9Z" stroke="#67779A" stroke-width="1.4"/>
<path id="Vector" d="M11.7233 5.56037L11.8821 4.87862V4.87862L11.7233 5.56037ZM6.27668 5.56037L6.43547 6.24212L6.27668 5.56037ZM5.51619 5.85047L5.99259 6.36335H5.99259L5.51619 5.85047ZM4.55 6.91667C4.55 7.30327 4.8634 7.61667 5.25 7.61667C5.6366 7.61667 5.95 7.30327 5.95 6.91667H4.55ZM5.36003 6.04718L4.75246 5.69954L4.75246 5.69954L5.36003 6.04718ZM12.4838 5.85047L12.9602 5.33759L12.9602 5.33759L12.4838 5.85047ZM12.05 6.91667C12.05 7.30327 12.3634 7.61667 12.75 7.61667C13.1366 7.61667 13.45 7.30327 13.45 6.91667H12.05ZM12.64 6.04718L12.0324 6.39482L12.0324 6.39482L12.64 6.04718ZM8.3 12.75C8.3 13.1366 8.6134 13.45 9 13.45C9.3866 13.45 9.7 13.1366 9.7 12.75H8.3ZM10.25 13.45C10.6366 13.45 10.95 13.1366 10.95 12.75C10.95 12.3634 10.6366 12.05 10.25 12.05V13.45ZM7.75 12.05C7.3634 12.05 7.05 12.3634 7.05 12.75C7.05 13.1366 7.3634 13.45 7.75 13.45V12.05ZM9 5.95C9.88749 5.95 10.7469 6.05169 11.5645 6.24212L11.8821 4.87862C10.9606 4.66398 9.99458 4.55 9 4.55V5.95ZM6.43547 6.24212C7.25308 6.05169 8.11251 5.95 9 5.95V4.55C8.00542 4.55 7.03944 4.66398 6.1179 4.87862L6.43547 6.24212ZM6.1179 4.87862C5.78278 4.95667 5.36777 5.03294 5.03979 5.33759L5.99259 6.36335C5.99307 6.36291 5.99267 6.3633 5.99172 6.364C5.99078 6.36469 5.99065 6.36467 5.99205 6.36388C5.99505 6.36219 6.00782 6.35535 6.03937 6.34428C6.11536 6.31764 6.22206 6.29183 6.43547 6.24212L6.1179 4.87862ZM5.95 6.91667C5.95 6.67721 5.95081 6.54866 5.96025 6.45472C5.968 6.37752 5.97736 6.37778 5.9676 6.39482L4.75246 5.69954C4.63267 5.90889 4.58701 6.11816 4.56726 6.31477C4.54919 6.49463 4.55 6.70467 4.55 6.91667H5.95ZM5.03979 5.33759C4.93052 5.4391 4.82653 5.57009 4.75246 5.69954L5.9676 6.39482C5.96685 6.39615 5.96756 6.3948 5.97005 6.39116C5.97247 6.38764 5.97566 6.38328 5.97942 6.37855C5.98317 6.37382 5.9867 6.36972 5.98958 6.36657C5.99256 6.36331 5.99371 6.36231 5.99259 6.36335L5.03979 5.33759ZM11.5645 6.24212C11.7779 6.29183 11.8846 6.31764 11.9606 6.34428C11.9922 6.35535 12.005 6.36219 12.008 6.36388C12.0093 6.36467 12.0092 6.36469 12.0083 6.364C12.0073 6.3633 12.0069 6.36291 12.0074 6.36335L12.9602 5.33759C12.6322 5.03294 12.2172 4.95667 11.8821 4.87862L11.5645 6.24212ZM13.45 6.91667C13.45 6.70467 13.4508 6.49463 13.4327 6.31477C13.413 6.11816 13.3673 5.90889 13.2475 5.69954L12.0324 6.39482C12.0226 6.37778 12.032 6.37752 12.0398 6.45472C12.0492 6.54866 12.05 6.67721 12.05 6.91667H13.45ZM12.0074 6.36335C12.0063 6.36231 12.0074 6.36331 12.0104 6.36656C12.0133 6.36972 12.0168 6.37382 12.0206 6.37855C12.0243 6.38328 12.0275 6.38764 12.0299 6.39116C12.0324 6.3948 12.0332 6.39615 12.0324 6.39482L13.2475 5.69955C13.1735 5.57009 13.0695 5.4391 12.9602 5.33759L12.0074 6.36335ZM8.3 5.25V12.75H9.7V5.25H8.3ZM10.25 12.05H7.75V13.45H10.25V12.05Z" fill="#67779A"/>
</g>
</g>
</svg>
