<svg width="19" height="18" viewBox="0 0 19 18" fill="none" xmlns="http://www.w3.org/2000/svg">
<g id="time-schedule">
<g id="elements">
<path id="Path" d="M9.33301 6V9L10.458 10.125" stroke="#67779A" stroke-width="1.4" stroke-linecap="round" stroke-linejoin="round"/>
<path id="Rectangle 2087" d="M14.9921 12.34C16.2194 13.0028 16.833 13.3342 16.833 13.875C16.833 14.4158 16.2194 14.7472 14.9921 15.41L14.1564 15.8613C13.2138 16.3703 12.7425 16.6248 12.516 16.4397C11.961 15.9866 12.8256 14.8171 13.0383 14.4028C13.2538 13.983 13.2499 13.7594 13.0383 13.3472C12.8256 12.9329 11.961 11.7634 12.516 11.3103C12.7425 11.1252 13.2138 11.3797 14.1563 11.8887L14.9921 12.34Z" stroke="#67779A" stroke-width="1.4"/>
<path id="Vector" d="M10.1026 16.461C9.84957 16.4868 9.59283 16.5 9.33301 16.5C5.19087 16.5 1.83301 13.1421 1.83301 9C1.83301 4.85786 5.19087 1.5 9.33301 1.5C13.4751 1.5 16.833 4.85786 16.833 9C16.833 9.5137 16.7814 10.0153 16.683 10.5" stroke="#67779A" stroke-width="1.4" stroke-linecap="round"/>
</g>
</g>
</svg>
