<svg width="22" height="22" viewBox="0 0 22 22" fill="none" xmlns="http://www.w3.org/2000/svg">
<path d="M10.9982 1C7.99043 1 6.04018 3.01899 3.73371 3.7549C2.79589 4.05413 2.32697 4.20374 2.1372 4.41465C1.94743 4.62556 1.89186 4.93375 1.78072 5.55013C0.591434 12.146 3.1909 18.244 9.39029 20.6175C10.0564 20.8725 10.3894 21 11.0015 21C11.6135 21 11.9466 20.8725 12.6126 20.6175C18.8116 18.2439 21.4086 12.146 20.219 5.55013C20.1078 4.93364 20.0522 4.6254 19.8624 4.41449C19.6726 4.20358 19.2037 4.05405 18.2659 3.75499C15.9585 3.01915 14.0061 1 10.9982 1Z" stroke="#E31E24" stroke-width="1.5" stroke-linecap="round" stroke-linejoin="round"/>
<path d="M8.5803 14.8573L8.27607 15.5428L8.27607 15.5428L8.5803 14.8573ZM7.63321 13.8425L6.93367 14.113L6.93367 14.113L7.63321 13.8425ZM14.3668 13.8425L15.0663 14.113L15.0663 14.113L14.3668 13.8425ZM13.4197 14.8573L13.7239 15.5428L13.7239 15.5428L13.4197 14.8573ZM13.4197 9.51773L13.7239 8.8322L13.4197 9.51773ZM14.3668 10.5325L15.0663 10.262L15.0663 10.262L14.3668 10.5325ZM8.5803 9.51773L8.27607 8.8322H8.27607L8.5803 9.51773ZM7.63321 10.5325L6.93367 10.262L7.63321 10.5325ZM8.5 9.375C8.5 9.78921 8.83579 10.125 9.25 10.125C9.66421 10.125 10 9.78921 10 9.375H8.5ZM12 9.375C12 9.78921 12.3358 10.125 12.75 10.125C13.1642 10.125 13.5 9.78921 13.5 9.375H12ZM10.125 10.125H11.875V8.625H10.125V10.125ZM11.875 14.25H10.125L10.125 15.75H11.875V14.25ZM10.125 14.25C9.70631 14.25 9.43253 14.2495 9.22216 14.2342C9.01961 14.2193 8.93381 14.1936 8.88454 14.1718L8.27607 15.5428C8.5484 15.6637 8.82724 15.7093 9.1128 15.7302C9.39052 15.7505 9.72829 15.75 10.125 15.75L10.125 14.25ZM6.75 12.1875C6.75 12.6147 6.74965 12.9702 6.76817 13.2611C6.78706 13.5577 6.82777 13.839 6.93367 14.113L8.33275 13.5721C8.30544 13.5014 8.27955 13.3921 8.26514 13.1658C8.25035 12.9336 8.25 12.6339 8.25 12.1875H6.75ZM8.88454 14.1718C8.64711 14.0664 8.44273 13.8566 8.33275 13.5721L6.93367 14.113C7.17892 14.7474 7.6559 15.2676 8.27607 15.5428L8.88454 14.1718ZM13.75 12.1875C13.75 12.6339 13.7496 12.9336 13.7349 13.1658C13.7205 13.3921 13.6946 13.5014 13.6672 13.5721L15.0663 14.113C15.1722 13.839 15.2129 13.5577 15.2318 13.2611C15.2504 12.9702 15.25 12.6147 15.25 12.1875H13.75ZM11.875 15.75C12.2717 15.75 12.6095 15.7505 12.8872 15.7302C13.1728 15.7093 13.4516 15.6637 13.7239 15.5428L13.1155 14.1718C13.0662 14.1936 12.9804 14.2193 12.7778 14.2342C12.5675 14.2495 12.2937 14.25 11.875 14.25V15.75ZM13.6672 13.5721C13.5573 13.8566 13.3529 14.0664 13.1155 14.1718L13.7239 15.5428C14.3441 15.2676 14.8211 14.7474 15.0663 14.113L13.6672 13.5721ZM11.875 10.125C12.2937 10.125 12.5675 10.1255 12.7778 10.1408C12.9804 10.1557 13.0662 10.1814 13.1155 10.2032L13.7239 8.8322C13.4516 8.71134 13.1728 8.66571 12.8872 8.64484C12.6095 8.62453 12.2717 8.625 11.875 8.625V10.125ZM15.25 12.1875C15.25 11.7603 15.2504 11.4048 15.2318 11.1139C15.2129 10.8173 15.1722 10.536 15.0663 10.262L13.6672 10.8029C13.6946 10.8736 13.7205 10.9829 13.7349 11.2092C13.7496 11.4414 13.75 11.7411 13.75 12.1875H15.25ZM13.1155 10.2032C13.3529 10.3086 13.5573 10.5184 13.6672 10.8029L15.0663 10.262C14.8211 9.62765 14.3441 9.10744 13.7239 8.8322L13.1155 10.2032ZM10.125 8.625C9.72829 8.625 9.39052 8.62453 9.1128 8.64484C8.82724 8.66571 8.5484 8.71134 8.27607 8.8322L8.88454 10.2032C8.93381 10.1814 9.01961 10.1557 9.22216 10.1408C9.43253 10.1255 9.70631 10.125 10.125 10.125V8.625ZM8.25 12.1875C8.25 11.7411 8.25035 11.4414 8.26514 11.2092C8.27955 10.9829 8.30544 10.8736 8.33275 10.8029L6.93367 10.262C6.82777 10.536 6.78706 10.8173 6.76817 11.1139C6.74965 11.4048 6.75 11.7603 6.75 12.1875H8.25ZM8.27607 8.8322C7.6559 9.10744 7.17892 9.62765 6.93367 10.262L8.33275 10.8029C8.44273 10.5184 8.64711 10.3086 8.88454 10.2032L8.27607 8.8322ZM10 9.375V7.6875H8.5V9.375H10ZM12 7.6875V9.375H13.5V7.6875L12 7.6875ZM11 6.75C11.5782 6.75 12 7.19521 12 7.6875L13.5 7.6875C13.5 6.31583 12.3548 5.25 11 5.25V6.75ZM10 7.6875C10 7.19521 10.4218 6.75 11 6.75V5.25C9.64523 5.25 8.5 6.31583 8.5 7.6875H10Z" fill="#E31E24"/>
</svg>
