<svg width="18" height="18" viewBox="0 0 18 18" fill="none" xmlns="http://www.w3.org/2000/svg">
<path d="M6 7.625L9.09242 4.53258C9.93607 3.68893 10.3579 3.26711 10.8234 2.92736C11.7785 2.23028 12.8864 1.7714 14.0547 1.58893C14.6241 1.5 15.2206 1.5 16.4137 1.5C16.4761 1.5 16.5 1.52859 16.5 1.58628C16.5 2.77938 16.5 3.37593 16.4111 3.94534C16.2286 5.11364 15.7697 6.22145 15.0726 7.17659C14.7329 7.64211 14.3111 8.06393 13.4674 8.90758L10.375 12" stroke="#FAFAFC" stroke-width="1.125" stroke-linecap="round" stroke-linejoin="round"/>
<path d="M7.75573 6.07379C6.47856 6.07379 4.87333 5.80323 3.67822 6.29826C2.80253 6.66099 2.15816 7.50087 1.5 8.15903L3.97948 9.22166C4.63656 9.50327 4.23488 10.3325 4.1261 10.8764C4.00489 11.4824 4.01165 11.5048 4.44869 11.9418L6.05819 13.5513C6.49522 13.9884 6.51756 13.9951 7.12362 13.8739C7.66752 13.7651 8.49673 13.3634 8.77834 14.0205L9.84097 16.5C10.4991 15.8418 11.339 15.1975 11.7017 14.3218C12.1968 13.1267 11.9262 11.5214 11.9262 10.2443" stroke="#FAFAFC" stroke-width="1.125" stroke-linejoin="round"/>
<path d="M14.1705 4.62502C14.3901 4.40535 14.3901 4.0492 14.1705 3.82953C13.9508 3.60986 13.5946 3.60986 13.375 3.82953L14.1705 4.62502ZM11.9773 5.22725C11.7576 5.44692 11.7576 5.80308 11.9773 6.02275C12.1969 6.24242 12.5531 6.24242 12.7727 6.02275L11.9773 5.22725ZM13.375 3.82953L11.9773 5.22725L12.7727 6.02275L14.1705 4.62502L13.375 3.82953ZM10.4833 3.56225C11.8215 3.60194 12.7731 4.00643 13.4005 4.64942C14.03 5.29458 14.4001 6.24855 14.4377 7.51668L15.5623 7.48332C15.5187 6.01664 15.0835 4.76346 14.2057 3.86374C13.3256 2.96186 12.0678 2.48375 10.5167 2.43775L10.4833 3.56225Z" fill="#FAFAFC"/>
<path d="M9 15L8.25 15.75" stroke="#FAFAFC" stroke-width="1.125" stroke-linecap="round" stroke-linejoin="round"/>
<path d="M3 9L2.25 9.75" stroke="#FAFAFC" stroke-width="1.125" stroke-linecap="round" stroke-linejoin="round"/>
</svg>
