<svg width="20" height="20" viewBox="0 0 20 20" fill="none" xmlns="http://www.w3.org/2000/svg">
<g id="Upload">
<path id="Combined-Shape" fill-rule="evenodd" clip-rule="evenodd" d="M5.368 6.60993C5.782 6.60993 6.118 6.93728 6.118 7.34062C6.118 7.74396 5.782 8.07131 5.368 8.07131H4.435C2.816 8.07131 1.5 9.35342 1.5 10.9298V15.6792C1.5 17.2565 2.816 18.5386 4.435 18.5386H15.565C17.183 18.5386 18.5 17.2565 18.5 15.6792V10.921C18.5 9.34952 17.188 8.07131 15.576 8.07131H14.633C14.219 8.07131 13.883 7.74396 13.883 7.34062C13.883 6.93728 14.219 6.60993 14.633 6.60993H15.576C18.015 6.60993 20 8.54382 20 10.921V15.6792C20 18.0622 18.01 20 15.565 20H4.435C1.99 20 0 18.0622 0 15.6792V10.9298C0 8.54771 1.99 6.60993 4.435 6.60993H5.368ZM10.5306 0.206784L13.4466 3.05938C13.7386 3.34581 13.7376 3.80761 13.4446 4.09209C13.1506 4.37657 12.6766 4.37657 12.3846 4.09014L10.749 2.49115L10.7496 13.1831H9.2496L9.249 2.49115L7.6156 4.09014C7.4696 4.23433 7.2766 4.30545 7.0846 4.30545C6.8936 4.30545 6.7016 4.23433 6.5556 4.09209C6.2626 3.80761 6.2606 3.34581 6.5536 3.05938L9.4686 0.206784C9.7496 -0.0689281 10.2496 -0.0689281 10.5306 0.206784Z" fill="#E53A3A"/>
</g>
</svg>
