<svg width="18" height="16" viewBox="0 0 18 16" fill="none" xmlns="http://www.w3.org/2000/svg">
<g id="elements">
<path id="Vector" d="M3.81052 10.4723C2.89681 11.0251 0.501131 12.154 1.96026 13.5665C2.67303 14.2565 3.46688 14.75 4.46494 14.75H10.1601C11.1581 14.75 11.952 14.2565 12.6647 13.5665C14.1239 12.154 11.7282 11.0251 10.8145 10.4723C8.67186 9.1759 5.95314 9.1759 3.81052 10.4723Z" stroke="#4B5F87" stroke-width="1.5" stroke-linecap="round" stroke-linejoin="round"/>
<path id="Ellipse 1382" d="M10.125 4.25C10.125 5.90685 8.78185 7.25 7.125 7.25C5.46815 7.25 4.125 5.90685 4.125 4.25C4.125 2.59315 5.46815 1.25 7.125 1.25C8.78185 1.25 10.125 2.59315 10.125 4.25Z" stroke="#4B5F87" stroke-width="1.5"/>
<path id="Vector 6598" d="M12.75 2.75L16.5 2.75" stroke="#4B5F87" stroke-width="1.5" stroke-linecap="round" stroke-linejoin="round"/>
<path id="Vector 6599" d="M12.75 5L16.5 5" stroke="#4B5F87" stroke-width="1.5" stroke-linecap="round" stroke-linejoin="round"/>
<path id="Vector 6600" d="M15 7.25L16.5 7.25" stroke="#4B5F87" stroke-width="1.5" stroke-linecap="round" stroke-linejoin="round"/>
</g>
</svg>
