<svg width="18" height="18" viewBox="0 0 18 18" fill="none" xmlns="http://www.w3.org/2000/svg">
<g id="Add variable">
<g id="elements">
<path id="Vector" d="M13.5 15.75C14.4241 15.75 15.1733 14.8865 15.1733 13.8214C15.1733 12.1356 15.0984 11.0148 16.255 9.68185C16.5817 9.30528 16.5817 8.69472 16.255 8.31815C15.0984 6.98516 15.1733 5.86437 15.1733 4.17857C15.1733 3.11345 14.4241 2.25 13.5 2.25" stroke="#67779A" stroke-width="1.2" stroke-linecap="round" stroke-linejoin="round"/>
<path id="Vector_2" d="M4.5 15.75C3.57588 15.75 2.82673 14.8865 2.82673 13.8214C2.82673 12.1356 2.90158 11.0148 1.74505 9.68185C1.41832 9.30528 1.41832 8.69472 1.74504 8.31815C2.87622 7.01438 2.82673 5.87994 2.82673 4.17857C2.82673 3.11345 3.57588 2.25 4.5 2.25" stroke="#67779A" stroke-width="1.2" stroke-linecap="round" stroke-linejoin="round"/>
</g>
</g>
</svg>
