<svg width="19" height="18" viewBox="0 0 19 18" fill="none" xmlns="http://www.w3.org/2000/svg">
<g id="whatsapp-business">
<g id="elements">
<path id="Ellipse 1794" d="M9.66699 16.5C13.8091 16.5 17.167 13.1421 17.167 9C17.167 4.85786 13.8091 1.5 9.66699 1.5C5.52486 1.5 2.16699 4.85786 2.16699 9C2.16699 10.0341 2.3763 11.0194 2.75486 11.9157C2.96408 12.4111 3.06869 12.6588 3.08164 12.846C3.09459 13.0332 3.0395 13.2391 2.9293 13.6509L2.16699 16.5L5.01607 15.7377C5.4279 15.6275 5.63382 15.5724 5.82101 15.5854C6.0082 15.5983 6.25588 15.7029 6.75125 15.9121C7.64758 16.2907 8.63284 16.5 9.66699 16.5Z" stroke="#67779A" stroke-width="1.4" stroke-linejoin="round"/>
<path id="Vector" d="M10.3288 9C11.2059 9 11.917 9.75552 11.917 10.6875C11.917 11.6195 11.2059 12.375 10.3288 12.375H8.47582C7.97668 12.375 7.72711 12.375 7.57205 12.2229C7.41699 12.0708 7.41699 11.8261 7.41699 11.3365V9M10.3288 9C11.2059 9 11.917 8.24448 11.917 7.3125C11.917 6.38052 11.2059 5.625 10.3288 5.625H8.47582C7.97668 5.625 7.72711 5.625 7.57205 5.77708C7.41699 5.92916 7.41699 6.17393 7.41699 6.66346V9M10.3288 9H7.41699" stroke="#67779A" stroke-width="1.4" stroke-linecap="round" stroke-linejoin="round"/>
</g>
</g>
</svg>
