<svg width="18" height="18" viewBox="0 0 18 18" fill="none" xmlns="http://www.w3.org/2000/svg">
<g id="elements">
<path id="Ellipse 1794" d="M8.99902 16.5C13.1412 16.5 16.499 13.1421 16.499 9C16.499 4.85786 13.1412 1.5 8.99902 1.5C4.85689 1.5 1.49902 4.85786 1.49902 9C1.49902 10.0342 1.70833 11.0194 2.08689 11.9157C2.29611 12.4111 2.40072 12.6588 2.41367 12.846C2.42662 13.0332 2.37153 13.2391 2.26134 13.6509L1.49902 16.5L4.3481 15.7377C4.75994 15.6275 4.96585 15.5724 5.15304 15.5854C5.34023 15.5983 5.58791 15.7029 6.08328 15.9121C6.97961 16.2907 7.96487 16.5 8.99902 16.5Z" stroke="#67779A" stroke-width="1.4" stroke-linejoin="round"/>
<path id="Vector" d="M6.43916 9.283L7.09236 8.47173C7.36767 8.12981 7.708 7.81147 7.73465 7.35619C7.74137 7.24121 7.66046 6.72492 7.49865 5.6924C7.43505 5.28661 7.05619 5.25 6.72804 5.25C6.30041 5.25 6.08659 5.25 5.87426 5.34699C5.6059 5.46957 5.33039 5.81423 5.26993 6.103C5.22209 6.33147 5.25764 6.4889 5.32874 6.80377C5.63072 8.14111 6.33916 9.46189 7.43766 10.5604C8.53616 11.6589 9.85693 12.3673 11.1943 12.6693C11.5091 12.7404 11.6666 12.776 11.895 12.7281C12.1838 12.6677 12.5285 12.3921 12.6511 12.1238C12.748 11.9115 12.748 11.6976 12.748 11.27C12.748 10.9419 12.7114 10.563 12.3057 10.4994C11.2731 10.3376 10.7568 10.2567 10.6419 10.2634C10.1866 10.29 9.86824 10.6304 9.52632 10.9057L8.71504 11.5589" stroke="#67779A" stroke-width="1.4"/>
</g>
</svg>
